<?xml version="1.0" encoding="UTF-8"?>
<svg width="167.23mm" height="42.307mm" version="1.1" viewBox="0 0 167.23 42.307" xmlns="http://www.w3.org/2000/svg">
 <g transform="translate(0 -254.69)">
  <path d="m90.055 261.2-3.7197 0.6165v20.832l0.12971 0.0398c0.67595 0.20696 1.5146 0.39273 2.5172 0.56017 1.0261 0.16826 2.0977 0.25321 3.2148 0.25321 1.1637 0 2.2122-0.17946 3.1414-0.54053 0.92668-0.36008 1.7171-0.88532 2.3637-1.5704 0.66465-0.68509 1.169-1.5049 1.5095-2.452v-2e-3c0.3591-0.96663 0.53744-2.042 0.53744-3.2256 0-1.1429-0.1501-2.1884-0.45114-3.1331-0.28273-0.96334-0.69866-1.7922-1.2511-2.4794-0.55329-0.6883-1.2521-1.2146-2.0882-1.5772-0.82124-0.38281-1.7531-0.57309-2.791-0.57309-0.54259 0-1.0437 0.0665-1.5219 0.17001v3.191c0.31284-0.063 0.63293-0.1049 0.9679-0.1049 1.1767 0 1.9855 0.38683 2.5048 1.1674l0.0021 2e-3c0.54448 0.79205 0.82579 1.8815 0.82579 3.2814 0 1.4503-0.34224 2.5666-1.0098 3.3771-0.66713 0.7917-1.5705 1.1839-2.7662 1.1839-0.53122 0-0.98707-0.018-1.3668-0.0543-0.30347-0.0458-0.53672-0.0923-0.74828-0.13746v-13.428zm35.702 0-3.7197 0.6165v20.832l0.13178 0.0398c0.67592 0.20696 1.5126 0.39273 2.5151 0.56017 1.0261 0.16826 2.0982 0.25321 3.2153 0.25321 1.1637 0 2.2117-0.17946 3.1409-0.54053 0.92667-0.36008 1.7177-0.88532 2.3642-1.5704 0.66464-0.68509 1.1685-1.5049 1.509-2.452v-2e-3c0.35911-0.96663 0.53743-2.042 0.53743-3.2256 0-1.1429-0.14957-2.1884-0.45062-3.1331-0.28273-0.96334-0.69918-1.7922-1.2516-2.4794-0.55329-0.6883-1.2521-1.2146-2.0882-1.5772-0.82125-0.38281-1.7531-0.57309-2.791-0.57309-0.54258 0-1.0437 0.0665-1.5219 0.17001v3.191c0.31284-0.063 0.63344-0.1049 0.96842-0.1049 1.1767 0 1.985 0.38683 2.5042 1.1674l2e-3 2e-3c0.54447 0.79205 0.82578 1.8815 0.82578 3.2814 0 1.4503-0.34223 2.5666-1.0098 3.3771-0.66714 0.7917-1.57 1.1839-2.7657 1.1839-0.5312 0-0.98707-0.018-1.3668-0.0543-0.30347-0.0458-0.53672-0.0923-0.74827-0.13746v-18.825zm-11.742 2.635-5.6999 7.5908h1.9802v5.7552c0 0.97302 0.0846 1.8476 0.25425 2.6221 0.17114 0.76223 0.46673 1.4279 0.89039 1.9875l2e-3 2e-3c0.4274 0.54513 1.0027 0.96279 1.711 1.2506 0.73033 0.28889 1.622 0.42994 2.6727 0.42994 0.86282 0 1.6188-0.0939 2.2681-0.28525 0.63058-0.16751 1.1434-0.33676 1.542-0.50798l0.13849-0.0594-0.62942-3.0267-0.2036 0.0811c-0.26596 0.1066-0.64041 0.22611-1.1162 0.3545h-2e-3c-0.44117 0.12377-0.95745 0.18758-1.5539 0.18758-0.85159 0-1.4097-0.23278-1.7368-0.67541-0.32841-0.4443-0.51728-1.2413-0.51728-2.3874v-5.7278h5.1516v-3.1714h-5.1516zm29.525 4.0582c-0.93307 0-1.8115 0.0755-2.636 0.22582-0.81752 0.14896-1.4435 0.29789-1.8846 0.45166l-0.14418 0.0506 0.47233 3.0939 0.21135-0.076c0.39059-0.14233 0.90756-0.27158 1.5467-0.38137 0.63413-0.10894 1.336-0.16277 2.1027-0.16278 0.55652 0 1.0043 0.072 1.3431 0.20774l2e-3 2e-3h2e-3c0.3628 0.1385 0.63634 0.3329 0.83509 0.58187l9e-3 9e-3c0.21974 0.23713 0.36962 0.51244 0.45476 0.83665 0.0881 0.33535 0.13332 0.69012 0.13332 1.064v6.4637c-0.51125 0.0935-1.2076 0.15141-2.1694 0.15141-0.8272 0-1.4671-0.14699-1.926-0.41909-0.43701-0.27736-0.6599-0.75029-0.6599-1.5053 0-0.37904 0.0854-0.67071 0.24339-0.89245l2e-3 -2e-3v-2e-3c0.16784-0.25229 0.38115-0.44197 0.64905-0.5762 0.29524-0.13879 0.61744-0.23439 0.96842-0.28732 0.37963-0.0543 0.751-0.0811 1.111-0.0811 0.0703 0 0.12317 0.0125 0.19121 0.0139v-2.7502c-0.23184-0.0191-0.47094-0.0486-0.69092-0.0486-0.80561 0-1.5839 0.0841-2.3352 0.25321-0.73927 0.15198-1.3981 0.41892-1.9725 0.80202-0.57817 0.36697-1.0436 0.85307-1.3901 1.4511l-4e-3 4e-3c-0.33201 0.60669-0.49197 1.3429-0.49197 2.1988 0 0.88934 0.14083 1.6481 0.43254 2.2717v2e-3l2e-3 2e-3c0.30713 0.61554 0.72355 1.1212 1.2459 1.509l2e-3 2e-3c0.53933 0.38607 1.182 0.66347 1.9218 0.83458 0.73595 0.17019 1.544 0.25476 2.4236 0.25476 1.3188 0 2.501-0.0842 3.5471-0.25269l-4e-3 2e-3c1.0546-0.14834 1.8416-0.27934 2.3673-0.39222l0.14624-0.0305v-8.9483c0-0.86324-0.10267-1.6556-0.31006-2.3761l-2e-3 -2e-3c-0.19119-0.74568-0.52779-1.3857-1.0098-1.9079-0.46655-0.52597-1.0936-0.93061-1.8733-1.2165-0.78434-0.28756-1.7386-0.42788-2.8618-0.42788zm15.599 0.0563c-1.1933 0-2.2877 0.11187-3.282 0.33745-0.96458 0.20462-1.775 0.42763-2.4324 0.67231l-0.1204 0.0455v14.136h3.7197v-11.668c0.15941-0.0456 0.36539-0.0969 0.70694-0.15916 0.41578-0.0724 0.80264-0.108 1.1596-0.108 0.6357 0 1.1856 0.0553 1.648 0.16226h4e-3l4e-3 2e-3c0.49372 0.0916 0.87497 0.18347 1.1379 0.2713l0.19844 0.0651 0.0413-0.20412 0.61495-2.9926-0.15502-0.0506c-0.17499-0.0585-0.40107-0.11396-0.67645-0.16949-0.28188-0.0753-0.5728-0.13202-0.8723-0.17002-0.30273-0.0568-0.60591-0.0946-0.90899-0.11369-0.29523-0.0365-0.55782-0.0563-0.78599-0.0563zm-58.258 0.30541v3.1709h1.9818v11.713h3.7181v-14.884h-3.5347zm63.951 10.464c-0.66943 0-1.2526 0.23414-1.7095 0.69195-0.45803 0.44063-0.69246 1.0264-0.69246 1.7131 0 0.68816 0.23399 1.2737 0.69401 1.7146 0.45752 0.43856 1.0403 0.66352 1.7079 0.66352 0.6495 0 1.2206-0.22495 1.6769-0.66145 0.4779-0.43993 0.72295-1.0277 0.72295-1.7167 0-0.68843-0.2459-1.2748-0.72295-1.7146-0.45541-0.45488-1.0261-0.6904-1.6769-0.6904z" fill="#383838"/>
  <path d="m131.76 286.36c-0.5737 0-1.1108 0.0956-1.6118 0.28629-0.50097 0.19069-0.93728 0.47249-1.309 0.84594-0.37169 0.3655-0.66706 0.81433-0.88522 1.3467-0.21007 0.53237-0.31471 1.1443-0.31471 1.8356 0 0.69127 0.0927 1.3032 0.27854 1.8355s0.45251 0.98513 0.79995 1.3586c0.34744 0.3655 0.77183 0.64388 1.2728 0.83457 0.50096 0.1907 1.0663 0.28577 1.6965 0.28577 0.32321 0 0.62618-0.0198 0.90899-0.0594 0.2828-0.0318 0.53753-0.0756 0.76378-0.13126 0.22624-0.0636 0.42027-0.12715 0.58188-0.19068 0.16967-0.0636 0.30301-0.12715 0.39997-0.19069l-0.41238-1.2273c-0.18585 0.0953-0.44818 0.1983-0.78754 0.30954-0.33936 0.1033-0.78 0.15503-1.3214 0.15503-0.45249 0-0.84004-0.0714-1.1632-0.21446-0.32321-0.15096-0.58988-0.35739-0.79995-0.6196-0.21008-0.27016-0.3678-0.58792-0.47284-0.95343-0.097-0.36549-0.14521-0.76705-0.14521-1.2041 0-0.49263 0.0645-0.9257 0.19379-1.2991 0.12928-0.37345 0.30705-0.68334 0.5333-0.92966 0.23432-0.24632 0.50911-0.4291 0.82424-0.54829 0.31512-0.12713 0.65442-0.19069 1.018-0.19069 0.42017 0 0.80772 0.0557 1.1632 0.16692 0.3636 0.1033 0.64272 0.21465 0.83664 0.33383l0.44804-1.2278c-0.0566-0.0318-0.15307-0.083-0.29043-0.15452-0.13735-0.0715-0.31132-0.13903-0.52141-0.20257-0.21009-0.0636-0.4567-0.11925-0.73949-0.16691-0.2828-0.0557-0.59771-0.0837-0.94516-0.0837zm13.669 0c-0.54945 0-1.0708 0.0916-1.5637 0.2744-0.49289 0.18276-0.9292 0.45668-1.309 0.82218-0.37168 0.3655-0.66654 0.81826-0.8847 1.3586-0.21816 0.53236-0.32711 1.1522-0.32711 1.8593 0 0.70716 0.10895 1.3309 0.32711 1.8712s0.50922 0.99307 0.87282 1.3586c0.37169 0.35755 0.80368 0.62805 1.2966 0.81081 0.50096 0.18274 1.0305 0.27388 1.588 0.27388 0.55752 0 1.0827-0.0911 1.5756-0.27388 0.49289-0.18276 0.92107-0.45326 1.2847-0.81081 0.37168-0.3655 0.66221-0.81826 0.8723-1.3586 0.21816-0.54031 0.32763-1.164 0.32763-1.8712 0-0.70717-0.10947-1.327-0.32763-1.8593-0.21816-0.54031-0.51302-0.99307-0.8847-1.3586-0.3636-0.3655-0.79179-0.63942-1.2847-0.82218-0.49288-0.18275-1.0138-0.2744-1.5632-0.2744zm16.645 0.10749c-0.33936 0-0.72743 0.0118-1.1638 0.0356-0.43633 0.0238-0.84826 0.0795-1.2361 0.16692v8.0212c0.38784 0.0874 0.79597 0.14259 1.2242 0.16639 0.42825 0.0318 0.812 0.0481 1.1514 0.0481 0.71104 0 1.3571-0.0838 1.9389-0.25063 0.58985-0.17481 1.0912-0.43691 1.5033-0.78651 0.42017-0.35756 0.74321-0.79851 0.96945-1.3229 0.22625-0.53237 0.33952-1.1561 0.33952-1.8712 0-0.73101-0.11327-1.3587-0.33952-1.8831-0.22624-0.53236-0.54928-0.96937-0.96945-1.311-0.41208-0.34961-0.9091-0.60383-1.4909-0.76275-0.58177-0.16685-1.2241-0.25011-1.927-0.25011zm-26.38 0.0832v8.2594h5.3087v-1.2991h-3.7817v-6.9603zm15.397 0v5.1609c0 0.47674 0.065 0.91375 0.1943 1.311 0.12928 0.39728 0.32713 0.74264 0.59377 1.0366 0.27472 0.294 0.61782 0.52458 1.0299 0.69143 0.41208 0.15892 0.90528 0.23823 1.479 0.23823 0.57368 0 1.0707-0.0793 1.4909-0.23823 0.42016-0.16685 0.76326-0.39743 1.0299-0.69143 0.27472-0.29399 0.47689-0.63935 0.60617-1.0366 0.13736-0.39728 0.20619-0.83429 0.20619-1.311v-5.1609h-1.5394v5.0178c0 0.37345-0.0444 0.69517-0.13333 0.96531-0.0808 0.26221-0.2022 0.47703-0.3638 0.64389-0.15352 0.16686-0.33891 0.28952-0.55707 0.36897-0.21817 0.0795-0.46097 0.11938-0.72761 0.11938s-0.50893-0.0399-0.72709-0.11938c-0.21008-0.0795-0.39598-0.20211-0.55758-0.36897-0.15352-0.16686-0.2744-0.38168-0.36329-0.64389-0.0808-0.27014-0.12144-0.59186-0.12144-0.96531v-5.0178zm-5.6751 1.1322c0.37976 0 0.72339 0.0714 1.0304 0.21445 0.30704 0.14303 0.56557 0.34603 0.77567 0.60824 0.21816 0.25426 0.38349 0.56809 0.49661 0.94154 0.11312 0.3655 0.17001 0.77441 0.17001 1.2273 0 0.45289-0.0569 0.86627-0.17001 1.2397-0.11312 0.36551-0.27845 0.67934-0.49661 0.94155-0.2101 0.25426-0.46863 0.45281-0.77567 0.59583s-0.65067 0.21446-1.0304 0.21446c-0.38784 0-0.73527-0.0714-1.0423-0.21446-0.30705-0.14302-0.56938-0.34157-0.78755-0.59583-0.21008-0.26221-0.37213-0.57604-0.48524-0.94155-0.11313-0.37344-0.1695-0.78682-0.1695-1.2397 0-0.45291 0.0564-0.86182 0.1695-1.2273 0.11311-0.3655 0.27516-0.67934 0.48524-0.94154 0.21817-0.26221 0.4805-0.46521 0.78755-0.60824 0.30704-0.14302 0.65447-0.21445 1.0423-0.21445zm16.755 0.0837c1.0342 0 1.7979 0.25029 2.2908 0.75086 0.49289 0.50058 0.73949 1.2194 0.73949 2.157 0 0.92169-0.25473 1.641-0.76378 2.1575-0.50095 0.50852-1.2646 0.76274-2.2908 0.76274h-0.59376c-0.14545-8e-3 -0.26252-0.0158-0.3514-0.0238v-5.7686c0.19393-0.0238 0.51696-0.0357 0.96945-0.0357z" fill="#383838"/>
  <path d="m27.991 254.7a18.164 18.164 0 0 0-18.164 18.164 18.164 18.164 0 0 0 0.07651 1.537 11.353 11.353 0 0 0-9.9036 11.249 11.353 11.353 0 0 0 11.353 11.353h47.255v-0.0108a12.779 12.779 0 0 0 12.229-9.2725 12.779 12.779 0 0 0-5.0258-13.994l-9.5743 9.575h-14.294c-0.86007 2.6489-3.3602 4.5873-6.2803 4.5873-3.6218 0-6.6007-2.9796-6.6007-6.6014 0-3.6218 2.9789-6.6015 6.6007-6.6015 2.8938 0 5.3727 1.9047 6.2543 4.5167h12.62l7.3186-7.3163a12.779 12.779 0 0 0-5.9161-0.16856 7.9867 7.9867 0 0 0-5.7668-6.976 7.9867 7.9867 0 0 0-5.7043 0.52092 18.164 18.164 0 0 0-16.477-10.566zm7.6717 24.087c-1.4065 0-2.5025 1.0967-2.5025 2.5032 0 1.4065 1.096 2.5024 2.5025 2.5024 1.4065 0 2.5032-1.0959 2.5032-2.5024 0-1.4066-1.0967-2.5032-2.5032-2.5032z" fill="#00b5e2"/>
 </g>
</svg>
