<svg id="Layer_1" data-name="Layer 1" xmlns="http://www.w3.org/2000/svg" viewBox="0 0 1165 240"><defs><style>.cls-1{fill:#66499c;}.cls-2{fill:#ffffff;}.cls-3{fill:#79cbec;}</style></defs><title>kobiton1</title><path class="cls-1" d="M50.19,116q0-11.62.33-22.44a9,9,0,0,0-9.92-9.17c-12.89,1.4-23.92,3-32.91,4.41A8.91,8.91,0,0,0,.2,97.65v43.94a8.92,8.92,0,0,0,7.44,8.8c9.07,1.54,20.19,3.17,33.14,4.58a9,9,0,0,0,9.87-9.17Q50.19,131.63,50.19,116Z" transform="translate(-0.16 0)"/><path class="cls-1" d="M155.36,40.58c-1.42-13-3-24.13-4.48-33.14A8.9,8.9,0,0,0,142.07,0H97.42a8.89,8.89,0,0,0-8.78,7.4C87.08,16.52,85.42,27.76,84,40.92a9,9,0,0,0,9.19,9.92q15.35-.57,32.38-0.6,10.64,0,20.61.28A9,9,0,0,0,155.36,40.58Z" transform="translate(-0.16 0)"/><path class="cls-1" d="M239.63,141.57V97.13a8.92,8.92,0,0,0-7.47-8.81c-9.16-1.53-20.32-3.13-33.25-4.5a9,9,0,0,0-9.9,9.26c0.39,10.38.62,21.34,0.62,32.88q0,10.12-.25,19.61a9,9,0,0,0,9.9,9.15c12.82-1.36,23.82-2.92,32.81-4.32A8.92,8.92,0,0,0,239.63,141.57Z" transform="translate(-0.16 0)"/><path class="cls-1" d="M84.09,198.33c1.35,12.91,2.87,24,4.33,33.23a8.92,8.92,0,0,0,8.83,7.53h45.58a8.92,8.92,0,0,0,8.82-7.47c1.53-9.27,3.12-20.5,4.5-33.51a9,9,0,0,0-9.21-9.87q-14.85.53-31.25,0.55-11.6,0-22.41-.33A9,9,0,0,0,84.09,198.33Z" transform="translate(-0.16 0)"/><path class="cls-1" d="M45.58,185.48c-13.37-1.29-25.14-2.83-35.1-4.37A8.93,8.93,0,0,0,.16,189.92v40.24a8.93,8.93,0,0,0,8.94,8.93H49a8.9,8.9,0,0,0,8.85-10.18c-1.47-10.07-2.94-21.88-4.2-35.32A9,9,0,0,0,45.58,185.48Z" transform="translate(-0.16 0)"/><path class="cls-1" d="M53.47,45.94c1.32-13.62,2.9-25.56,4.47-35.63A8.91,8.91,0,0,0,49.13,0h-40A8.92,8.92,0,0,0,.16,8.92h0V49.43a8.94,8.94,0,0,0,10.26,8.83c9.9-1.48,21.61-3,35-4.26A9,9,0,0,0,53.47,45.94Z" transform="translate(-0.16 0)"/><path class="cls-2" d="M159,88.88a8.86,8.86,0,0,0-8.58-8.46Q138.54,80,125.6,80c-13,0-25.21.3-36.66,0.8a8.88,8.88,0,0,0-8.51,8.55Q80,102.08,79.94,116c0,12,.25,23.3.69,34a8.88,8.88,0,0,0,8.56,8.52q12.65,0.47,26.49.49c12.44,0,24.22-.28,35.28-0.75a8.88,8.88,0,0,0,8.5-8.6q0.38-11.38.4-23.72C159.84,112.85,159.54,100.47,159,88.88Z" transform="translate(-0.16 0)"/><path class="cls-2" d="M186.59,193.25c-1.25,13.52-2.77,25.44-4.3,35.61a8.9,8.9,0,0,0,8.83,10.22h39.58a8.93,8.93,0,0,0,8.94-8.93h0v-40.4a8.91,8.91,0,0,0-10.19-8.84c-9.9,1.46-21.53,2.92-34.75,4.17A9,9,0,0,0,186.59,193.25Z" transform="translate(-0.16 0)"/><path class="cls-2" d="M193.92,53.37c13.48,1.27,25.36,2.79,35.47,4.32a8.9,8.9,0,0,0,10.24-8.83V8.92A8.93,8.93,0,0,0,230.69,0H190.34a8.93,8.93,0,0,0-8.84,10.27c1.49,9.91,3,21.64,4.32,35.05A9,9,0,0,0,193.92,53.37Z" transform="translate(-0.16 0)"/><path class="cls-2" d="M147.71,99.35l-0.19-.12a8.7,8.7,0,0,1-2.91-12l0.29-.45c9-12.91,28.92-38.87,53.14-53.4a8.7,8.7,0,0,1,12.36,3.81l0.09,0.2a8.84,8.84,0,0,1-3.39,11.35c-21,12.58-39.17,36.3-47.4,48.1A8.93,8.93,0,0,1,147.71,99.35Z" transform="translate(-0.16 0)"/><path class="cls-2" d="M197.89,206.49c-24-14.47-43.83-40.15-52.86-53.11a8.92,8.92,0,0,1,2.22-12.43l0.43-.28h0a8.93,8.93,0,0,1,12,2.5c8.27,11.81,26.58,35.64,47.65,48.2a8.57,8.57,0,0,1,3.26,11l-0.08.18A8.91,8.91,0,0,1,197.89,206.49Z" transform="translate(-0.16 0)"/><path class="cls-3" d="M359.62,119.6l-18.21,19v60a10.64,10.64,0,0,1-10.64,10.64h0a10.64,10.64,0,0,1-10.64-10.64h0V40a10.64,10.64,0,0,1,10.59-10.69h0.07A10.64,10.64,0,0,1,341.43,40h0V111.4L417.2,32.49a10,10,0,0,1,7.25-3.09h0a10,10,0,0,1,7.16,17.05L375,104l72,88a10.9,10.9,0,0,1-8.44,17.82h0a10.91,10.91,0,0,1-8.44-4Z" transform="translate(-0.16 0)"/><path class="cls-3" d="M524,77.32c38.22,0,65.65,28.19,65.65,65.34,0,36.2-27.7,65.85-65.65,65.85-37.19,0-65.65-28.71-65.65-65.85C458.35,104.74,487.07,77.32,524,77.32Zm0,112.77c25.9,0,44.59-20.49,44.59-47.34,0-25.88-17.69-47.15-44.59-47.15-26.15,0-44.59,20-44.59,47.15,0,27.58,21,47.32,44.59,47.32h0Z" transform="translate(-0.16 0)"/><path class="cls-3" d="M627,29.34h0a10.13,10.13,0,0,1,10.13,10.12h0L636.84,98.8h0.52c8.21-9.75,21.29-21.52,46.16-21.52,34.62,0,61.81,28.19,61.81,65.34,0,40-29.75,65.85-61.31,65.85-22.29,0-37.7-10-46.68-20.76h-0.52v11.24a10.13,10.13,0,0,1-10.13,10.12h0a10.13,10.13,0,0,1-10.13-10.12h0L616.87,39.5A10.13,10.13,0,0,1,627,29.34h0ZM679.15,95C654.53,95,635,114.17,635,143.39c0,27.93,21,47.15,44.59,47.15,29.75,0,44.59-24.35,44.59-47.92C724.28,118.83,709.41,95,679.15,95v0Z" transform="translate(-0.16 0)"/><path class="cls-3" d="M781.85,30.18h1.28a11.92,11.92,0,0,1,11.93,11.92h0A11.92,11.92,0,0,1,783.13,54h-1.28a11.92,11.92,0,0,1-11.93-11.92h0A11.92,11.92,0,0,1,781.85,30.18Zm0.52,51.23h0a10.13,10.13,0,0,1,10.13,10.12h0V198.2a10.13,10.13,0,0,1-10.13,10.12h0a10.13,10.13,0,0,1-10.13-10.12h0V91.54a10.13,10.13,0,0,1,10.13-10.12h0Z" transform="translate(-0.16 0)"/><path class="cls-3" d="M823,81.42h7.69V52.34a10.13,10.13,0,0,1,10.13-10.12h0a10.13,10.13,0,0,1,10.13,10.12h0V81.42h24.37a8.45,8.45,0,0,1,8.46,8.45h0a8.45,8.45,0,0,1-8.46,8.45H851V166c0,20,6.16,25.37,19.23,25.37a54.09,54.09,0,0,0,5.64-.31,8.35,8.35,0,0,1,9.22,8.35h0a8.36,8.36,0,0,1-7,8.27,74.65,74.65,0,0,1-12,.88c-29.75,0-35.39-20-35.39-43.31v-67H823a8.45,8.45,0,0,1-8.46-8.45h0A8.45,8.45,0,0,1,823,81.42h0Z" transform="translate(-0.16 0)"/><path class="cls-3" d="M964.55,77.32c38.22,0,65.65,28.19,65.65,65.34,0,36.2-27.7,65.85-65.65,65.85-37.19,0-65.65-28.71-65.65-65.85C898.9,104.74,927.63,77.32,964.55,77.32Zm0,112.77c25.9,0,44.59-20.49,44.59-47.34,0-25.88-17.69-47.15-44.59-47.15-26.15,0-44.59,20-44.59,47.15,0,27.58,21,47.32,44.59,47.32h0Z" transform="translate(-0.16 0)"/><path class="cls-3" d="M1067.25,81.42h0a10.13,10.13,0,0,1,10.13,10.12h0v5.25H1078c11.29-14.6,25.39-19.49,38.72-19.49,22.29,0,48.47,13.84,48.47,55.36V199A10.13,10.13,0,0,1,1155,209.1h0A10.13,10.13,0,0,1,1144.9,199h0V134c0-24.85-12.05-38.44-31.28-38.44-22.06,0-36.23,14.87-36.23,43.31V199a10.13,10.13,0,0,1-10.13,10.12h0A10.13,10.13,0,0,1,1057.14,199h0V91.54A10.13,10.13,0,0,1,1067.25,81.42Z" transform="translate(-0.16 0)"/></svg>
