<?xml version="1.0" encoding="utf-8"?>
<!-- Generator: Adobe Illustrator 16.0.0, SVG Export Plug-In . SVG Version: 6.00 Build 0)  -->
<!DOCTYPE svg PUBLIC "-//W3C//DTD SVG 1.1//EN" "http://www.w3.org/Graphics/SVG/1.1/DTD/svg11.dtd">
<svg version="1.1" id="Layer_1" xmlns="http://www.w3.org/2000/svg" xmlns:xlink="http://www.w3.org/1999/xlink" x="0px" y="0px"
	 width="1440px" height="482.4px" viewBox="0 0 1440 482.4" enable-background="new 0 0 1440 482.4" xml:space="preserve">
<g>
	<path fill="#0B243D" d="M1435.516,355.027c-2.88,5.092-2.301,10.965-3.703,16.404c-12.822,49.779-45.245,79.082-94.56,90.805
		c-17.771,4.225-35.919,2.883-53.903,3.096c-109.051,1.289-218.107,2.275-327.163,3.361c-1.073,0.012-2.146,0-4.357,0
		c6.254-7.33,12.004-14.068,17.761-20.805c0.585-0.688,1.372-1.252,1.792-2.023c6.378-11.705,16.543-13.135,28.964-13.074
		c97.146,0.473,194.297,0.027,291.444,0.42c25.257,0.104,47.438-7.832,67.293-22.365c53.51-39.17,43.759-117.088-4.92-148.381
		c-20.32-13.063-42.462-14.979-65.372-8.477c-4.833,1.371-7.366,0.557-9.797-3.758c-3.084-5.475-6.684-10.701-10.469-15.726
		c-1.967-2.611-1.703-4.517-0.365-7.223c9.108-18.435,15.854-37.596,19.278-58.021c9.309-55.494-21.144-103.17-75.889-116.337
		c-43.238-10.398-83.037-2.643-117.188,26.961c-21.445,18.591-32.771,42.959-37.043,70.721c-1.096,7.109-1.554,14.333-1.964,21.521
		c-0.146,2.6-0.872,3.354-3.427,3.317c-9.027-0.135-18.062-0.193-27.085,0.023c-3.124,0.075-3.875-1.773-4.873-3.971
		c-7.408-16.328-17.276-30.821-31.946-41.527c-43.141-31.485-107.447-4.896-116.147,47.97c-0.265,1.601-0.699,3.181-0.838,4.788
		c-0.817,9.584-0.797,9.585-10.211,9.585c-12.994,0-25.987,0-39.021,0c8.312-48.516,42.27-99.76,102.387-110.094
		c32.69-5.619,63.234,2.074,92.028,17.754c4.541,2.473,9.052,5.001,13.576,7.503c1.996-4.604,3.801-9.303,6.016-13.798
		c22.284-45.21,58.821-72.053,107.488-83.185c7.379-1.689,14.864-2.728,22.41-3.339c0.86-0.07,1.84,0.119,2.139-1.068
		c1.808,0,3.611,0,5.418,0c3.975,0.886,7.947,0.886,11.921,0c1.444,0,2.891,0,4.334,0c10.855,1.234,21.771,1.609,32.438,4.657
		c54.858,15.673,90.326,50.695,105.748,105.646c7.933,28.257,7.892,56.988,3.639,85.83c-0.104,0.714-0.259,1.42-0.356,2.134
		c-1.021,7.273-0.973,7.364,6.167,9.17c38.229,9.686,66.567,32.083,84.694,66.981c7.602,14.635,12.537,30.311,13.105,47.053
		c0.027,0.883-0.149,1.811,0.557,2.545c0,1.809,0,3.613,0,5.42c-0.92,4.334-0.92,8.668,0,13.004
		C1435.516,350.691,1435.516,352.861,1435.516,355.027z"/>
	<path fill="#0B243D" d="M889.35,476.396c-9.508-2.176-19.008-4.393-28.526-6.523c-12.048-2.699-12.025-2.666-9.856-14.607
		c0.609-3.361,1.486-6.773,1.411-10.141c-0.12-5.334,2.352-6.182,6.962-5.568c11.295,1.504,22.629,1.744,33.954,0.049
		c15.105-2.262,23.332-11.309,21.928-24.232c-0.206-1.906-0.265-3.5-2.956-4.313c-15.794-4.771-19.85-10.525-21.727-27.246
		c-3.312-29.512-7.072-58.975-10.646-88.459c-1.148-9.471-2.23-18.955-3.503-28.41c-0.41-3.045,0.384-4.045,3.604-4.002
		c13.716,0.17,27.437,0.166,41.151,0.002c3.168-0.039,3.773,1.078,3.95,4.02c1.723,28.617,3.566,57.227,5.559,85.826
		c0.25,3.598-0.206,8.717,3.898,9.846c4.695,1.293,6.285-3.9,8.241-7.064c8.194-13.229,12.299-28.248,18.122-42.51
		c6.24-15.281,12.035-30.744,18.067-46.111c0.669-1.699,0.669-3.975,3.548-3.965c16.891,0.064,33.781,0.031,51.459,0.031
		c-4.586,9.93-8.837,19.174-13.123,28.402c-22.832,49.172-45.68,98.336-68.492,147.516c-2.732,5.891-5.977,11.439-9.944,16.59
		c-9.328,12.1-21.565,18.766-36.785,19.979c-1.729,0.646-3.526,0.211-5.287,0.34c-2.579,0.275-5.242-0.627-7.756,0.557
		C891.517,476.396,890.433,476.396,889.35,476.396z"/>
	<path fill="#7E8C9A" d="M1435.516,348.525c-1.725-4.334-1.762-8.67,0-13.004C1435.516,339.855,1435.516,344.191,1435.516,348.525z"
		/>
	<path fill="#95A0AC" d="M1185.189,6.087c-3.974,1.796-7.947,1.796-11.921,0C1177.242,6.087,1181.216,6.087,1185.189,6.087z"/>
	<path fill="#B1B8C1" d="M900.226,475.512c0.321,0.213,0.421,0.414,0.303,0.605c-0.114,0.188-0.229,0.279-0.343,0.279
		c-2.528,0-5.057,0-7.584,0"/>
	<path fill="#0B243D" d="M588.999,266.264c6.68,0,13.361,0.09,20.04-0.045c2.518-0.051,2.948,0.758,2.586,3.152
		c-4.555,30.063-8.973,60.146-13.505,90.211c-1.117,7.418,2.897,14.945,9.915,18.006c7.646,3.332,16.885,0.834,22.336-5.994
		c5.311-6.65,6.393-14.68,7.538-22.707c3.689-25.83,7.426-51.654,11.091-77.488c0.503-3.555,1.534-5.418,5.928-5.277
		c12.805,0.402,25.636,0.293,38.451,0.053c3.819-0.074,4.441,1.117,3.923,4.592c-5.077,33.99-10.031,67.998-15.003,102.004
		c-1.875,12.82-3.725,25.643-5.529,38.471c-0.407,2.893-1.451,4.271-4.825,4.189c-10.826-0.26-21.664-0.094-32.497-0.1
		c-1.592,0-3.019,0.043-4.421-1.303c-6.236-5.98-8.477-6.51-16.043-2.188c-9.913,5.658-20.481,7.699-31.666,7.008
		c-8.39-0.52-16.343-2.816-23.301-7.67c-12.588-8.783-16.676-21.158-14.576-35.938c4.939-34.744,9.964-69.477,14.824-104.23
		c0.475-3.398,1.368-5.047,5.239-4.84C575.985,266.514,582.499,266.264,588.999,266.264z"/>
	<path fill="#0B243D" d="M297.322,370.605c-1.715,12.023-3.503,24.066-5.095,36.137c-0.293,2.217-1.521,2.986-3.25,3.766
		c-5.466,2.469-11.197,3.967-17.128,4.564c-15.499,1.568-31.117,1.656-46.268-1.74c-24.848-5.568-39.369-24.021-41.904-49.309
		c-2.021-20.162,2.45-39.4,6.123-58.834c2.369-12.537,4.787-25.064,7.299-37.576c5.757-28.664,25.361-47.206,54.575-52.364
		c24.525-4.329,48.4-1.021,72.175,4.943c2.881,0.725,3.168,1.601,2.256,4.346c-4.127,12.42-8.074,24.907-11.813,37.452
		c-0.936,3.141-2.035,3.359-4.921,2.375c-10.652-3.637-21.62-5.893-32.911-4.348c-17.425,2.381-28.647,12.961-34.872,28.734
		c-8.066,20.443-10.192,41.879-7.984,63.648c1.919,18.91,13.745,24.842,30.777,23.846c9.909-0.58,19.557-2.857,29.112-5.473
		C294.698,370.445,295.844,369.936,297.322,370.605z"/>
	<path fill="#0B243D" d="M336.933,416.656c-6.862,0-13.739-0.285-20.579,0.104c-4.3,0.246-5.212-1.031-4.385-5.082
		c3.597-17.611,7.03-35.254,10.432-52.902c9.083-47.135,18.173-94.266,27.064-141.435c0.633-3.361,1.521-4.487,5.002-4.438
		c14.083,0.199,28.17,0.188,42.254,0.009c3.559-0.047,3.979,0.763,3.324,4.244c-10.08,53.54-19.966,107.116-29.9,160.684
		c-2.164,11.666-4.406,23.32-6.469,35.004c-0.545,3.09-1.953,4.008-5.077,3.895C351.385,416.477,344.156,416.656,336.933,416.656z"
		/>
	<path fill="#0B243D" d="M1192.703,340.078c6.818-5.4,12.015-10.686,19.846-11.57c7.505-0.846,12.22,1.801,17.324,11.313
		c3.12-2.385,5.5-5.543,8.798-7.57c6.688-4.119,13.813-6.027,20.771-1.719c6.75,4.188,7.934,11.422,6.708,18.691
		c-2.896,17.188-6.28,34.291-9.235,51.469c-0.44,2.559-1.259,3.094-3.677,3.186c-12.838,0.475-12.75,0.566-10.388-11.994
		c2.392-12.711,4.628-25.447,6.842-38.191c0.671-3.848,0.795-8.066-3.186-10.051c-3.82-1.9-7.724-0.529-10.969,2.264
		c-4.927,4.238-6.896,10.033-8.092,16.084c-2.466,12.512-4.811,25.049-6.96,37.615c-0.553,3.232-1.675,4.33-5.084,4.303
		c-11.511-0.098-11.478,0.064-9.411-11.174c2.31-12.541,4.586-25.092,6.789-37.652c0.758-4.301,1.577-8.926-3.061-11.631
		c-3.729-2.17-10.393,0.451-13.76,4.971c-4.123,5.531-5.217,12.154-6.488,18.67c-2.167,11.105-4.313,22.223-6.156,33.385
		c-0.464,2.799-1.507,3.342-4.077,3.396c-12.476,0.268-12.346,0.367-9.996-11.883c3.622-18.879,7.222-37.766,10.437-56.717
		c0.732-4.316,2.287-6,6.48-5.291c0.178,0.031,0.36,0.006,0.541,0.006C1195.453,329.979,1195.453,329.979,1192.703,340.078z"/>
	<path fill="#0B243D" d="M1139.337,328.398c-7.788-0.953-15.06,1.701-21.081,6.498c-15.544,12.389-21.404,29.363-19.221,48.395
		c2.137,18.629,19.151,27.381,36.588,19.461c19.043-8.646,25.584-25.441,27.033-41.955
		C1162.703,340.129,1155.148,330.342,1139.337,328.398z M1120.756,388.502c-5.241-3.088-6.165-8.449-6.051-12.99
		c0.006-8.252,1.597-14.648,4.553-20.707c2.024-4.158,5.053-7.469,9.154-9.621c7.541-3.965,15.95-0.496,17.569,7.74
		c2.089,10.652,0.026,20.834-6.27,29.748c-4.635,6.557-11.646,9.096-17.341,6.645c-0.146-0.063-0.288-0.125-0.429-0.191"/>
	<path fill="#0B243D" d="M1077.115,354.816c0.041-5.439-1.018-10.033-6.984-11.414c-5.015-1.164-10.74,1.412-14.124,6.906
		c-5.903,9.572-7.082,20.242-6.088,31.15c0.355,3.926,2.82,7.168,6.939,8.105c4.699,1.074,8.899-0.305,12.306-3.814
		c0.25-0.256,0.478-0.547,0.652-0.857c1.663-2.891,3.049-8.002,5.021-8.238c4.386-0.523,9.063,1.391,13.647,2.316
		c-5.034,16.201-16.195,25.752-30.535,26.346c-13.445,0.557-22.857-6.662-24.235-19.934c-1.688-16.24,1.543-31.627,11.963-44.688
		c8.198-10.271,19.069-14.27,32.108-11.602c8.912,1.826,15.767,11.201,15.315,20.32c-0.105,2.119-1.145,2.191-2.61,2.492
		C1086.129,352.797,1081.79,353.791,1077.115,354.816z"/>
	<path fill="#0B243D" d="M1011.112,406.008c-5.993-0.115-10.914-5.25-10.737-11.205c0.178-6.027,5.214-10.744,11.313-10.596
		c5.952,0.143,11.051,5.396,10.838,11.17C1022.313,401.197,1017.024,406.125,1011.112,406.008z"/>
	<g>
		<path fill="#0B243D" d="M867.234,219.175c-0.154,0.853-0.317,1.703-0.457,2.558c-1.629,9.951-3.251,19.904-4.878,29.857
			c-1.308,8.008-2.626,16.016-3.925,24.025c-1.545,9.541-3.068,19.084-4.613,28.623c-1.13,6.98-2.289,13.955-3.419,20.934
			c-1.217,7.518-2.405,15.039-3.618,22.555c-1.209,7.477-2.44,14.947-3.651,22.422c-1.306,8.053-2.607,16.107-3.895,24.164
			c-0.35,2.189-0.702,4.381-0.941,6.584c-0.187,1.721-0.997,2.885-2.574,3.547c-1.891,0.791-3.777,1.596-5.672,2.375
			c-10.133,4.176-20.371,8.061-30.933,11.041c-6.729,1.9-13.546,3.408-20.477,4.332c-5.938,0.791-11.906,1.277-17.907,1.012
			c-7.754-0.346-15.277-1.74-22.414-4.922c-8.719-3.887-15.659-9.896-21.089-17.695c-5.251-7.541-8.719-15.9-11.134-24.717
			c-0.932-3.4-0.797-6.887-0.389-10.352c0.688-5.859,1.424-11.711,2.145-17.566c1.54-12.525,3.862-24.883,7.989-36.848
			c2.821-8.178,6.303-16.047,11.071-23.301c5.975-9.084,13.532-16.467,23.227-21.543c5.979-3.133,12.337-5.145,18.97-6.318
			c6.506-1.15,13.069-1.414,19.648-1.217c4.732,0.141,9.412,0.877,14.055,1.816c2.008,0.408,4.008,0.871,6.021,1.254
			c1.987,0.379,2.97-0.258,3.302-2.246c0.406-2.436,0.681-4.889,1.021-7.336c0.714-5.141,1.428-10.277,2.149-15.416
			c0.704-5.014,1.415-10.026,2.129-15.039c0.143-0.994,0.285-1.987,0.453-2.977c0.306-1.807,1.178-3.115,3.11-3.477
			c0.067-0.014,0.127-0.1,0.19-0.153c2.934,0,5.865,0,8.8,0c0.315,0.063,0.634,0.18,0.95,0.181c8.33,0.009,16.663,0.009,24.996,0
			c0.316,0,0.634-0.116,0.95-0.181c2.934,0,5.866,0,8.798,0c0.843,0.391,1.689,0.775,2.013,1.76
			C867.234,217.667,867.234,218.421,867.234,219.175z M776.087,383.182c0.77-0.076,1.94-0.139,3.096-0.311
			c7.666-1.152,13.777-6.682,15.424-14.254c1.554-7.148,2.89-14.348,4.253-21.537c1.514-7.973,2.962-15.955,4.407-23.941
			c0.448-2.461,1.165-4.898,0.873-7.447c-0.148-1.287-0.258-2.586-0.501-3.855c-0.77-4.027-2.255-7.771-5.283-10.623
			c-6.063-5.711-13.197-7.127-20.914-4.209c-8.244,3.113-13.148,9.422-15.286,17.85c-1.347,5.314-2.179,10.75-2.716,16.203
			c-0.652,6.627-1.714,13.191-2.657,19.775c-0.728,5.07-1.069,10.152-0.432,15.264c0.438,3.51,1.58,6.76,3.737,9.592
			C764.005,380.83,769.339,383.051,776.087,383.182z"/>
		<path fill="#0B243D" d="M6.484,468.553c0.704-0.789,0.563-1.82,0.707-2.74c1.373-8.766,2.699-17.537,4.03-26.307
			c1.376-9.063,2.737-18.125,4.117-27.186c1.127-7.404,2.277-14.807,3.405-22.211c0.964-6.328,1.906-12.662,2.863-18.992
			c0.876-5.793,1.764-11.584,2.639-17.377c0.8-5.297,1.585-10.596,2.385-15.893c0.806-5.336,1.629-10.672,2.428-16.01
			c0.877-5.877,1.733-11.756,2.601-17.635c0.866-5.879,1.733-11.758,2.6-17.637c0.464-3.146,0.989-6.285,1.371-9.439
			c0.295-2.445,1.479-4.063,3.748-5.039c12.223-5.27,24.808-9.336,37.945-11.609c9.571-1.658,19.216-2.193,28.908-1.768
			c10.244,0.453,20.069,2.689,29.179,7.516c15.892,8.42,26.016,21.373,30.181,38.904c1.195,5.033,1.714,10.148,1.523,15.328
			c-0.13,3.525-0.688,6.996-1.414,10.438c-1.485,7.049-2.576,14.16-3.655,21.279c-1.266,8.354-2.549,16.715-4.733,24.895
			c-4.074,15.242-13.171,26.5-27.087,33.887c-6.924,3.678-14.303,6.082-21.928,7.775c-5.851,1.299-11.772,2.104-17.746,2.59
			c-7.026,0.57-14.058,0.502-21.092,0.367c-1.673-0.033-3.346-0.168-5.019-0.182c-2.771-0.021-4.051,1.111-4.431,3.889
			c-0.272,1.99-0.486,3.988-0.731,5.982c-0.649,5.273-1.304,10.551-1.949,15.826c-0.543,4.445-1.077,8.893-1.614,13.338
			c-0.17,1.414-0.327,2.826-0.506,4.24c-0.298,2.352-1.215,3.195-3.616,3.303c-3.931,0.18-7.862,0.32-11.792,0.514
			c-6.564,0.314-13.126,0.656-19.688,0.994c-2.717,0.141-5.433,0.293-8.148,0.461c-0.489,0.031-0.971,0.166-1.458,0.252
			c-0.921,0-1.843,0-2.765,0c-0.419-0.25-0.838-0.502-1.257-0.752C6.484,469.223,6.484,468.887,6.484,468.553z M86.595,384.25
			c1.044-0.066,2.097-0.063,3.131-0.205c10.125-1.391,18.359-8.715,20.792-18.598c1.551-6.301,2.548-12.709,3.335-19.146
			c0.397-3.24,0.687-6.492,1.122-9.727c0.541-4.02,1.247-8.018,1.762-12.039c0.555-4.344,0.562-8.693-0.637-12.951
			c-1.77-6.293-5.503-10.936-11.652-13.416c-4.028-1.625-8.198-1.594-12.329-0.535c-7.524,1.93-12.306,6.656-14.019,14.309
			c-0.529,2.365-0.918,4.764-1.379,7.143c-1.043,5.381-2.122,10.754-3.129,16.137c-1.5,8.016-2.955,16.039-4.421,24.063
			c-0.315,1.727-0.73,3.449-0.854,5.191c-0.186,2.643,0.136,5.271,0.794,7.838c1.13,4.406,3.561,7.814,7.753,9.791
			C79.938,383.553,83.198,384.207,86.595,384.25z"/>
		<path fill="#0B243D" d="M535.328,325.586c-0.257,13.277-2.921,26.021-7.912,38.291c-4.894,12.029-11.67,22.877-20.566,32.355
			c-9.433,10.055-20.459,17.736-33.556,22.279c-7.718,2.678-15.663,3.957-23.822,3.461c-13.338-0.809-24.9-5.822-34.575-15.072
			c-7.443-7.113-12.56-15.717-15.992-25.367c-2.354-6.619-3.748-13.443-4.298-20.449c-1.058-13.512,0.823-26.641,5.157-39.438
			c4.905-14.475,12.454-27.41,22.952-38.547c10.185-10.807,22.21-18.729,36.536-23.025c7.074-2.121,14.246-2.82,21.592-2.229
			c12.903,1.041,24.133,5.863,33.59,14.721c4.969,4.652,8.928,10.086,12.067,16.113c4.221,8.104,6.841,16.715,7.898,25.781
			C534.83,318.154,535.024,321.877,535.328,325.586z M487.41,330.098c-0.032-4.49-0.361-8.195-1.297-11.824
			c-1.15-4.463-2.938-8.641-5.877-12.236c-3.727-4.564-9.017-5.996-14.558-4.016c-3.381,1.207-6.25,3.227-8.678,5.824
			c-4.426,4.732-7.705,10.209-10.118,16.205c-3.26,8.102-4.587,16.574-4.799,25.264c-0.132,5.367,0.544,10.604,2.309,15.686
			c1.207,3.477,2.841,6.717,5.491,9.334c3.709,3.658,8.106,4.885,13.142,3.434c3.119-0.9,5.755-2.68,8.087-4.9
			c4.392-4.182,7.761-9.096,10.273-14.602C485.578,349.082,487.086,339.336,487.41,330.098z"/>
	</g>
</g>
</svg>
