<?xml version="1.0" encoding="utf-8"?>
<!-- Generator: Adobe Illustrator 21.0.0, SVG Export Plug-In . SVG Version: 6.00 Build 0)  -->
<svg version="1.1" id="Layer_1" xmlns="http://www.w3.org/2000/svg" xmlns:xlink="http://www.w3.org/1999/xlink" x="0px" y="0px"
	 viewBox="0 0 325.1 325.1" style="enable-background:new 0 0 325.1 325.1;" xml:space="preserve">
<style type="text/css">
	.st0{fill:#939598;}
</style>
<g>
	<g>
		<path class="st0" d="M66.9,199.2c-7.4-18.5-6.7-36.6-6.7-36.6c0-56.5,46.1-102.5,102.6-102.5c4.9,0,9.7,0.4,14.5,1l-11.6,11.6
			c-1.1,0-2.1-0.1-3.2-0.1c-49.6,0-89.9,40.3-89.9,89.9c0,0-0.2,12.3,3.4,24.5h78.7l-32.8,62l79.5-80.3H93.2L214.6,47.2
			C198.7,40,181.1,36,162.5,36C92.8,36,36,92.8,36,162.5c0,45.6,24.3,85.7,60.6,107.9l37.8-71.3L66.9,199.2z"/>
		<path class="st0" d="M228.5,54.6l-37.8,71.3h67.4c0,0,6.8,15.9,6.8,36.7C265,219,219,265,162.5,265c-5,0-10-0.4-15-1.1l11.4-11.6
			c1.2,0,2.4,0.1,3.5,0.1c49.6,0,89.9-40.3,89.9-89.9c0,0,0-13.1-3.4-24.5h-78.7l32.8-62l-80.7,80.3h108.4L110.4,277.8
			c15.9,7.2,33.5,11.2,52.1,11.2c69.8,0,126.5-56.8,126.5-126.5C289.1,116.9,264.8,76.9,228.5,54.6z"/>
	</g>
</g>
</svg>
