<?xml version="1.0" encoding="utf-8"?>
<!-- Generator: Adobe Illustrator 24.2.0, SVG Export Plug-In . SVG Version: 6.00 Build 0)  -->
<svg version="1.1"
	 id="svg2" xmlns:cc="http://creativecommons.org/ns#" xmlns:dc="http://purl.org/dc/elements/1.1/" xmlns:rdf="http://www.w3.org/1999/02/22-rdf-syntax-ns#" xmlns:svg="http://www.w3.org/2000/svg"
	 xmlns="http://www.w3.org/2000/svg" xmlns:xlink="http://www.w3.org/1999/xlink" x="0px" y="0px" viewBox="0 0 1259 322"
	 style="enable-background:new 0 0 1259 322;" xml:space="preserve">
<style type="text/css">
	.st0{clip-path:url(#SVGID_2_);}
	.st1{fill:#F59F06;}
</style>
<g id="g10" transform="matrix(1.3333333,0,0,-1.3333333,0,353.88133)">
	<g id="g12">
		<g>
			<g>
				<defs>
					<rect id="SVGID_1_" x="-406" y="-129.7" width="1754.1" height="587.8"/>
				</defs>
				<clipPath id="SVGID_2_">
					<use xlink:href="#SVGID_1_"  style="overflow:visible;"/>
				</clipPath>
				<g id="g14" class="st0">
					<g id="g20" transform="translate(72.9564,150.672)">
						<path id="path22" class="st1" d="M-4.4,35.9c-18.8,0-26.9-15.7-26.9-35v-64.7h-31.8V98.4h15.9c10.5,0,15.7-5.5,15.7-15.9V44.7
							c16.2,18.6,36,23.8,59.7,15.4c17.7-6.5,26-23.4,25-50.8v-73.3H21.8V0.7C21.8,22,13.7,35.9-4.4,35.9"/>
					</g>
					<g id="g24" transform="translate(158.1792,132.2902)">
						<path id="path26" class="st1" d="M16.5,31.4H64C62.1,48,54.2,56.6,40.6,56.6S18.9,48,16.5,31.4 M40.6-48.3
							C2.5-47-16.7-24.8-16.7,18c0,43,19.3,64.4,57.7,64.7c40.1,0,58.9-24.5,56.6-74H15.9c1.2-19.3,9.6-29.2,25-29.2
							c7.4,0,14.3,3.1,20.6,9.1c2.9,3.1,6.5,4.5,10.7,4.5h23.4C88.8-33.6,71.6-48.3,40.6-48.3"/>
					</g>
					<g id="g28" transform="translate(293.5674,112.1863)">
						<path id="path30" class="st1" d="M49.8,26.4v11.7c-7.4-3.1-15.9-5.7-25.3-7.6C12,28.2,5.5,22.2,5.5,12.8
							C6.2,2.9,11.5-2,21.4-2C39-2,49.8,8.5,49.8,26.4 M9.7,67.9h-31.8c3.9,23.4,20.3,34.9,49.3,34.9c34.9,0,52.4-11.5,53.2-34.9
							v-43c0-34.9-21.1-50.3-55.1-52.7c-30.3-2.4-51.3,11.7-51.3,39.6c0.7,30.3,22.7,38.4,54.7,41.5c13.6,1.6,20.6,5.7,20.6,12.6
							C48.6,73,42,76.6,28.8,76.6C17.6,76.7,11.3,73.9,9.7,67.9"/>
					</g>
					<g id="g32" transform="translate(355.6208,121.5675)">
						<path id="path34" class="st1" d="M65.1,28.7C64.8,3.2,73.4-9.7,91.6-9.7s27.2,12.8,27.2,38.4C118,53,109.2,65,92.1,65
							C74.8,65,65.9,53,65.1,28.7 M150.2,111.6V20c0-37.9-19.8-56.8-59.2-56.6c-39.1,0.7-58.7,21.9-58.7,63.9
							c0,43,16.7,64.9,50.3,66c15.7,0,27.9-6.5,36-19.6v53.7h15.7C143.1,127.5,150.2,120,150.2,111.6"/>
					</g>
					<g id="g36" transform="translate(479.7097,89.0168)">
						<path id="path38" class="st1" d="M95.6,20.7c13.3,0,20.1,3.9,20.1,12c0,6.5-11,11.7-32.6,15.4c-27.9,5-42.2,17.4-42.5,37.2
							c0,27.2,21.4,40.1,50.3,40.6c16.2,0,29.2-3.6,38.6-10.7c9.3-7.4,14.3-17.7,15.1-30.8h-20.1c-7.4,0.2-12.2,2.9-14.1,7.8
							c-2.1,5.5-8.6,8.6-19.1,8.6c-12.5,0-18.6-3.4-18.6-9.8c0-6.5,8.1-11.5,24.5-14.6c21.4-4.2,35.5-9.7,42.5-16.2
							c6-6.2,8.8-13.8,8.8-22.4c0-31-24.3-42.5-57.7-42.5c-17.7,0-31,3.9-39.6,11.2C41.8,13.7,37,24.8,37,39.3h32.4
							C70,25.5,80,20.7,95.6,20.7"/>
					</g>
					<g id="g40" transform="translate(580.4409,91.5058)">
						<path id="path42" class="st1" d="M120.3,21.3c17.2,0,26,12.2,26.7,36.5c0,25.5-9.1,38.1-27.2,38.1
							c-18.2,0-26.7-12.6-26.5-38.1C94.3,33.5,103.1,21.3,120.3,21.3 M93.3-38.3c0-10.5-5.2-15.7-15.7-15.7H61.7V66.7
							c1.6,37.7,21.2,56.3,59.2,56.3c39.1,0,58.7-21.2,58.7-63.7c0-43-16.7-65.2-50.3-66.3c-15.7,0-27.7,6.5-35.8,19.6v-51H93.3z"/>
					</g>
					<g id="g44" transform="translate(653.0266,171.9272)">
						<path id="path46" class="st1" d="M138.2,41.1c10.2,0,15.3-5,15.3-15.3V-85.1h-31.8V41.1L138.2,41.1L138.2,41.1z M138.2,77.1
							c10.5,0,15.4-5.2,15.3-15.4v-9.3h-31.8v24.8H138.2z"/>
					</g>
					<g id="g48" transform="translate(752.9811,70.635)">
						<path id="path50" class="st1" d="M162.7,16.2c-10.5,0.7-15.7,5.7-15.7,15.7v64.9c-0.7,13.1-7.8,19.6-21.9,19.6
							s-21.2-6.5-21.4-19.6V16.2H71.4v74.1c0,36,18.2,53.9,54.2,53.9s53.7-17.9,53.4-53.9V16.2H162.7z"/>
					</g>
				</g>
			</g>
		</g>
	</g>
</g>
</svg>
