<?xml version="1.0" encoding="UTF-8" standalone="no"?>
<svg width="482px" height="80px" viewBox="0 0 482 80" version="1.1" xmlns="http://www.w3.org/2000/svg" xmlns:xlink="http://www.w3.org/1999/xlink">
    <!-- Generator: Sketch 49.3 (51167) - http://www.bohemiancoding.com/sketch -->
    <title>bs-black-logo-400x100</title>
    <desc>Created with Sketch.</desc>
    <defs>
        <path d="M39.9210329,76.4795238 C18.3487887,76.4795238 0.861032864,59.4235649 0.861032864,38.3839651 C0.861032864,17.3443748 18.3487887,0.288415833 39.9210329,0.288415833 C61.493277,0.288415833 78.9810329,17.3443748 78.9810329,38.3839651 C78.9810329,59.4235649 61.493277,76.4795238 39.9210329,76.4795238 Z" id="path-1"></path>
        <path d="M35.9610329,68.9306346 C16.4764225,68.9306346 0.681032864,53.5252462 0.681032864,34.5217492 C0.681032864,15.5182427 16.4764225,0.112857143 35.9610329,0.112857143 C55.4456432,0.112857143 71.2410329,15.5182427 71.2410329,34.5217492 C71.2410329,53.5252462 55.4456432,68.9306346 35.9610329,68.9306346 Z" id="path-3"></path>
        <path d="M31.4313615,59.9772985 C14.531446,59.9772985 0.831361502,46.6154924 0.831361502,30.1328571 C0.831361502,13.6502219 14.531446,0.288415833 31.4313615,0.288415833 C48.331277,0.288415833 62.0313615,13.6502219 62.0313615,30.1328571 C62.0313615,46.6154924 48.331277,59.9772985 31.4313615,59.9772985 Z" id="path-5"></path>
        <path d="M28.1375587,55.0993682 C12.6293991,55.0993682 0.0575586854,42.8379381 0.0575586854,27.7127015 C0.0575586854,12.5874556 12.6293991,0.326034881 28.1375587,0.326034881 C43.6457183,0.326034881 56.2175587,12.5874556 56.2175587,27.7127015 C56.2175587,42.8379381 43.6457183,55.0993682 28.1375587,55.0993682 Z" id="path-7"></path>
        <path d="M26.1575587,51.5130127 C11.7429296,51.5130127 0.0575586854,40.1161718 0.0575586854,26.0574635 C0.0575586854,11.9987457 11.7429296,0.601904762 26.1575587,0.601904762 C40.5721878,0.601904762 52.2575587,11.9987457 52.2575587,26.0574635 C52.2575587,40.1161718 40.5721878,51.5130127 26.1575587,51.5130127 Z" id="path-9"></path>
        <path d="M22.0175587,43.0863461 C9.98879812,43.0863461 0.237558685,33.575884 0.237558685,21.8441301 C0.237558685,10.1123762 9.98879812,0.601904762 22.0175587,0.601904762 C34.0463192,0.601904762 43.7975587,10.1123762 43.7975587,21.8441301 C43.7975587,33.575884 34.0463192,43.0863461 22.0175587,43.0863461 Z" id="path-11"></path>
        <path d="M18.8647887,36.2396794 C8.72484507,36.2396794 0.504788732,28.2225901 0.504788732,18.3330127 C0.504788732,8.44343536 8.72484507,0.426346071 18.8647887,0.426346071 C29.0047324,0.426346071 37.2247887,8.44343536 37.2247887,18.3330127 C37.2247887,28.2225901 29.0047324,36.2396794 18.8647887,36.2396794 Z" id="path-13"></path>
        <path d="M16.5099531,31.7128571 C7.66234742,31.7128571 0.489953052,24.7175576 0.489953052,16.0884158 C0.489953052,7.45927405 7.66234742,0.463965119 16.5099531,0.463965119 C25.3575587,0.463965119 32.5299531,7.45927405 32.5299531,16.0884158 C32.5299531,24.7175576 25.3575587,31.7128571 16.5099531,31.7128571 Z" id="path-15"></path>
        <path d="M14.1699531,26.8349175 C6.61469484,26.8349175 0.489953052,20.8614077 0.489953052,13.4927015 C0.489953052,6.12399536 6.61469484,0.15047619 14.1699531,0.15047619 C21.7252113,0.15047619 27.8499531,6.12399536 27.8499531,13.4927015 C27.8499531,20.8614077 21.7252113,26.8349175 14.1699531,26.8349175 Z" id="path-17"></path>
        <radialGradient cx="23.0492137%" cy="43.5331288%" fx="23.0492137%" fy="43.5331288%" r="3.51620435%" gradientTransform="translate(0.230492,0.435331),scale(0.597525,1.000000),translate(-0.230492,-0.435331)" id="radialGradient-19">
            <stop stop-color="#797979" offset="0%"></stop>
            <stop stop-color="#4C4C4C" offset="100%"></stop>
        </radialGradient>
        <path d="M14.1699531,26.8349175 C6.61469484,26.8349175 0.489953052,20.8614077 0.489953052,13.4927015 C0.489953052,6.12399536 6.61469484,0.15047619 14.1699531,0.15047619 C21.7252113,0.15047619 27.8499531,6.12399536 27.8499531,13.4927015 C27.8499531,20.8614077 21.7252113,26.8349175 14.1699531,26.8349175 Z" id="path-20"></path>
        <path d="M6.08502347,5.97801464 C5.10829108,8.15829238 3.24255399,9.44309571 1.91778404,8.84770845 C0.593023474,8.2523306 0.310892019,6.00220369 1.28762441,3.82192595 C2.26435681,1.64164821 4.1300939,0.356844881 5.45485446,0.952232143 C6.77962441,1.5476194 7.06175587,3.7977369 6.08502347,5.97801464 Z" id="path-22"></path>
        <path d="M1.08699531,1.64646439 C1.08699531,1.39378571 1.34516432,0.888440583 1.86162441,0.888440583 L19.6778498,0.888440583 C29.7479061,0.888440583 34.3956808,5.43658344 34.3956808,12.2587977 C34.3956808,17.3122857 31.8136244,19.8390358 28.715108,21.3550834 L28.715108,21.6077499 C31.5553333,22.6184524 35.1703099,26.1558927 35.1703099,31.4620594 C35.1703099,40.053 29.2315681,44.0957977 18.9032207,44.0957977 L1.86162441,44.0957977 C1.60333333,44.0957977 1.08699531,43.843119 1.08699531,43.3377739 L1.08699531,1.64646439 Z M19.4196808,18.8283333 C23.5509953,18.8283333 26.1330516,16.5542619 26.1330516,13.269488 C26.1330516,9.73204762 23.5509953,7.45797619 19.4196808,7.45797619 L9.86596244,7.45797619 C9.60779343,7.45797619 9.60779343,7.71065487 9.60779343,7.71065487 L9.60779343,18.3229882 C9.60779343,18.5756547 9.86596244,18.5756547 9.86596244,18.5756547 C9.60779343,18.8283333 19.4196808,18.8283333 19.4196808,18.8283333 Z M9.60779343,37.0209048 L19.6778498,37.0209048 C24.3256244,37.0209048 26.9076808,34.7468333 26.9076808,30.9567143 C26.9076808,27.1665952 24.3256244,24.8925238 19.6778498,24.8925238 L9.60779343,24.8925238 C9.34962441,24.8925238 9.34962441,25.1452025 9.34962441,25.1452025 L9.34962441,36.262881 C9.09133333,37.0209048 9.60779343,37.0209048 9.60779343,37.0209048 Z" id="path-24"></path>
        <path d="M1.78984977,32.5868689 C1.53155869,32.5868689 1.01522066,32.3342025 1.01522066,31.8288451 L1.01522066,2.51859524 C1.01522066,2.26591656 1.27338967,1.76057143 1.78984977,1.76057143 L8.24492958,1.76057143 C8.50322066,1.76057143 9.01955869,2.01325011 9.01955869,2.51859524 L9.01955869,5.04534535 L9.27784977,5.04534535 C10.8269859,2.77127392 13.9255023,1.00254762 18.0568169,1.00254762 C20.6388732,1.00254762 23.4792207,2.01325011 25.0284789,3.52929773 C25.2866479,3.78196418 25.2866479,4.28732154 25.2866479,4.28732154 L21.6717934,8.58278571 C21.4135023,8.83546439 20.8971643,8.83546439 20.6388732,8.83546439 C19.089615,8.07744058 17.5404789,7.31941677 15.4747606,7.31941677 C11.085277,7.31941677 9.01955869,10.0988333 9.01955869,15.1523213 L9.01955869,31.5761787 C9.01955869,31.8288451 8.76138967,32.3342025 8.24492958,32.3342025 L1.78984977,32.5868689 Z" id="path-26"></path>
        <path d="M1.90630047,23.7840118 C1.13167136,21.762619 0.615333333,19.7412263 0.615333333,16.2037737 C0.615333333,12.6663333 0.873502347,10.6449406 1.90630047,8.62353561 C3.97201878,3.06470249 8.87784038,0.285273702 15.8495023,0.285273702 C22.8210423,0.285273702 27.7269859,3.31736894 29.7927042,8.62353561 C30.5673333,10.6449406 31.0836714,12.6663333 31.0836714,16.2037737 C31.0836714,19.7412263 30.8255023,21.762619 29.7927042,23.7840118 C27.7269859,29.3428571 22.8210423,32.1222737 15.8495023,32.1222737 C8.87784038,32.1222737 3.7137277,29.3428571 1.90630047,23.7840118 Z M22.3047042,22.0152977 C23.0793333,20.4992501 23.0793333,18.9832025 23.0793333,16.4564524 C23.0793333,13.9297023 22.8210423,12.4136547 22.3047042,10.897607 C21.271784,8.37086915 19.2061878,6.85482154 15.8495023,6.85482154 C12.7509859,6.85482154 10.4270986,8.37086915 9.39430047,10.897607 C8.61967136,12.6663333 8.61967136,13.9297023 8.61967136,16.4564524 C8.61967136,18.9832025 8.87784038,20.4992501 9.39430047,22.0152977 C10.4270986,24.5420356 12.4928169,26.0580832 15.8495023,26.0580832 C18.9480188,26.0580832 21.013615,24.5420356 22.3047042,22.0152977 Z" id="path-28"></path>
        <path d="M32.9135587,31.3642499 C32.6552676,31.3642499 32.1389296,31.1115834 32.1389296,30.6062261 L25.6837277,10.897607 L25.4255587,10.897607 L18.9703568,30.3535596 C18.7120657,30.6062261 18.7120657,31.1115834 18.1957277,31.1115834 L12.5151549,31.1115834 C12.2569859,31.1115834 11.7405258,30.8589048 11.7405258,30.3535596 L1.15400939,1.04329751 C0.895840376,0.79063106 1.41230047,0.285273702 1.67046948,0.285273702 L8.38384038,0.285273702 C8.90030047,0.285273702 9.15846948,0.537952381 9.15846948,1.04329751 L15.6136714,21.2572739 L15.8718404,21.2572739 L22.3270423,1.04329751 C22.5852113,0.79063106 22.8433803,0.285273702 23.1016714,0.285273702 L28.265784,0.285273702 C28.5239531,0.285273702 29.0404131,0.537952381 29.0404131,1.04329751 L35.753784,21.2572739 L36.0119531,21.2572739 L42.2089859,1.04329751 C42.4671549,0.537952381 42.4671549,0.285273702 42.983615,0.285273702 L49.6969859,0.285273702 C49.9551549,0.285273702 50.471615,0.537952381 50.2133239,1.04329751 L39.8850986,30.3535596 C39.6269296,30.6062261 39.6269296,31.1115834 39.1104695,31.1115834 L32.9135587,31.3642499 Z" id="path-30"></path>
        <path d="M0.236807512,27.3214644 C-0.0213615023,27.0687857 -0.0213615023,26.5634406 0.236807512,26.5634406 L4.36812207,22.7733215 C4.62629108,22.5206429 5.14275117,22.5206429 5.40092019,22.7733215 C7.72480751,24.7947143 11.8561221,26.3107619 15.4709765,26.3107619 C19.6022911,26.3107619 21.6680094,24.7947143 21.6680094,22.7733215 C21.6680094,21.0045952 20.3769202,19.7412263 15.9874366,19.4885476 L12.3724601,19.2358689 C5.6590892,18.4778451 2.04423474,15.4457499 2.04423474,10.3922619 C2.04423474,4.58075011 6.69200939,0.537952381 14.9546385,0.537952381 C20.1187512,0.537952381 24.5082347,2.054 27.6067512,4.07539275 C27.8649202,4.32807143 27.8649202,4.83341656 27.8649202,4.83341656 L24.5082347,8.37086915 C24.2500657,8.62353561 23.7336056,8.62353561 23.4754366,8.62353561 C21.4097183,7.36016667 17.7948638,6.09679773 14.6963474,6.09679773 C11.339662,6.09679773 9.53223474,7.36016667 9.53223474,9.38155942 C9.53223474,11.1502857 10.8233239,12.1609882 15.2128075,12.6663333 L18.827662,12.919012 C25.7993239,13.6770358 29.1560094,16.9617975 29.1560094,21.762619 C29.1560094,27.8268095 24.2500657,32.1222737 14.9546385,32.1222737 C7.98297653,32.3749524 3.07703286,29.8482023 0.236807512,27.3214644 Z" id="path-32"></path>
        <path d="M1.36237559,23.7840118 C0.587746479,21.762619 0.071286385,19.4885476 0.071286385,16.2037737 C0.071286385,12.919012 0.329577465,10.6449406 1.36237559,8.62353561 C3.42797183,3.06470249 8.33391549,0.285273702 15.3055775,0.285273702 C22.2771174,0.285273702 27.183061,3.57004762 29.2486573,8.62353561 C30.0232864,10.6449406 30.5397465,12.919012 30.5397465,17.9725 C30.5397465,18.2251787 30.2815775,18.7305238 29.7651174,18.7305238 L8.59220657,18.7305238 C8.33391549,18.7305238 8.33391549,18.9832025 8.33391549,18.9832025 C8.33391549,19.7412263 8.59220657,20.7519166 8.85037559,21.2572739 C10.1413427,24.2893692 12.46523,25.8054168 16.3383756,25.8054168 C20.2113991,25.8054168 22.5352864,24.5420356 24.3427136,23.025988 C24.6010047,22.7733215 25.1173427,22.7733215 25.6338028,22.7733215 L29.7651174,26.0580832 C30.0232864,26.3107619 30.0232864,26.816107 30.0232864,26.816107 C27.183061,29.8482023 22.2771174,32.1222737 16.0802066,32.1222737 C8.33391549,32.3749524 3.16980282,29.3428571 1.36237559,23.7840118 Z M21.7606573,10.1395832 C20.9860282,7.61284535 18.4039718,6.09679773 15.3055775,6.09679773 C12.207061,6.09679773 9.62500469,7.61284535 8.59220657,10.1395832 C8.33391549,10.897607 8.33391549,11.6556308 8.33391549,12.6663333 C8.33391549,12.919012 8.59220657,12.919012 8.59220657,12.919012 L22.0189484,12.919012 C22.2771174,12.919012 22.2771174,12.6663333 22.2771174,12.6663333 C22.0189484,11.9083095 22.0189484,10.897607 21.7606573,10.1395832 Z" id="path-34"></path>
        <path d="M1.5254554,32.5868689 C1.26728638,32.5868689 0.750826291,32.3342025 0.750826291,31.8288451 L0.750826291,2.51859524 C0.750826291,2.26591656 1.00899531,1.76057143 1.5254554,1.76057143 L7.98065728,1.76057143 C8.23882629,1.76057143 8.75528638,2.01325011 8.75528638,2.51859524 L8.75528638,5.04534535 L9.0134554,5.04534535 C10.5627136,2.77127392 13.66123,1.00254762 17.7925446,1.00254762 C20.3746009,1.00254762 23.2148263,2.01325011 24.7640845,3.52929773 C25.0222535,3.78196418 25.0222535,4.28732154 25.0222535,4.28732154 L21.4073991,8.58278571 C21.14923,8.83546439 20.63277,8.83546439 20.3746009,8.83546439 C18.8253427,8.07744058 17.2760845,7.31941677 15.2104883,7.31941677 C10.8208826,7.31941677 8.75528638,10.0988333 8.75528638,15.1523213 L8.75528638,31.5761787 C8.75528638,31.8288451 8.49699531,32.3342025 7.98065728,32.3342025 L1.5254554,32.5868689 Z" id="path-36"></path>
        <path d="M0.421370892,40.2649166 C0.163079812,40.0122501 0.163079812,39.5068927 0.163079812,39.2542263 L4.55268545,34.7060834 C4.81085446,34.4534048 5.32719249,34.4534048 5.58548357,34.4534048 C8.684,36.7274762 13.3316526,39.0015476 18.4957653,39.0015476 C24.176338,39.0015476 27.5330235,36.4747975 27.5330235,32.6846785 C27.5330235,29.6525832 25.4674272,27.6311905 19.0122254,26.620488 L16.430169,26.3678215 C7.3929108,25.1044404 2.22879812,21.3143213 2.22879812,14.2394406 C2.22879812,6.40652381 8.684,1.10035714 18.2375962,1.10035714 C24.176338,1.10035714 29.8569108,2.86908344 33.4717653,5.39582132 C33.7300563,5.6485 33.7300563,5.90117868 33.7300563,6.15384513 L30.3733709,10.701988 C30.1150798,10.9546667 29.5987418,10.9546667 29.3404507,10.9546667 C25.4674272,8.68059524 21.8524507,7.66989275 17.9794272,7.66989275 C13.0734836,7.66989275 10.4914272,9.94396418 10.4914272,13.4814168 C10.4914272,16.513512 12.8151925,18.5349048 19.2703944,19.2929286 L21.8524507,19.5456072 C30.8897089,20.8089762 36.0538216,24.5990952 36.0538216,32.1793333 C36.0538216,39.7595714 29.8569108,45.5710832 18.2375962,45.5710832 C10.7495962,45.8237619 4.03622535,43.2970118 0.421370892,40.2649166 Z" id="path-38"></path>
        <path d="M13.6354742,40.680607 C6.92210329,40.680607 4.08187793,37.6485118 4.08187793,31.837 L4.08187793,15.6658213 C4.08187793,15.4131549 3.82370892,15.4131549 3.82370892,15.4131549 L1.75799061,15.4131549 C1.4998216,15.4131549 0.983361502,15.1604762 0.983361502,14.6551311 L0.983361502,10.3596547 C0.983361502,10.1069882 1.24165258,9.60163085 1.75799061,9.60163085 L3.82370892,9.60163085 C4.08187793,9.60163085 4.08187793,9.34896439 4.08187793,9.34896439 L4.08187793,1.01070249 C4.08187793,0.75802381 4.34004695,0.252678679 4.85650704,0.252678679 L11.3117089,0.252678679 C11.5698779,0.252678679 12.086338,0.505345131 12.086338,1.01070249 L12.086338,9.34896439 C12.086338,9.60163085 12.344507,9.60163085 12.344507,9.60163085 L16.9922817,9.60163085 C17.2504507,9.60163085 17.7667887,9.85430952 17.7667887,10.3596547 L17.7667887,14.6551311 C17.7667887,14.9077975 17.5086197,15.4131549 16.9922817,15.4131549 L12.344507,15.4131549 C12.086338,15.4131549 12.086338,15.6658213 12.086338,15.6658213 L12.086338,31.5843213 C12.086338,33.6057263 13.1191362,34.3637501 15.1847324,34.3637501 L16.9922817,34.3637501 C17.2504507,34.3637501 17.7667887,34.6164166 17.7667887,35.1217739 L17.7667887,40.1752619 C17.7667887,40.4279406 17.5086197,40.9332857 16.9922817,40.9332857 L13.6354742,40.680607 Z" id="path-40"></path>
        <path d="M22.5781315,32.5868689 C22.3199624,32.5868689 21.8035023,32.3342025 21.8035023,31.8288451 L21.8035023,29.5547737 C20.2542441,31.5761787 17.1558498,33.0922263 12.2499061,33.0922263 C6.05287324,33.0922263 0.888760563,30.3127975 0.888760563,23.7432619 C0.888760563,17.1737263 6.05287324,13.8889524 14.3155023,13.8889524 L21.0288732,13.8889524 C21.2871643,13.8889524 21.2871643,13.6362737 21.2871643,13.6362737 L21.2871643,12.1202261 C21.2871643,8.58278571 19.479615,7.0667381 13.7991643,7.0667381 C10.1841878,7.0667381 7.60213146,8.07744058 6.05287324,9.08813085 C5.79470423,9.34080952 5.27824413,9.34080952 5.02007512,8.83546439 L2.43801878,4.79266667 C2.17984977,4.53998799 2.17984977,4.03464286 2.69618779,4.03464286 C5.27824413,2.26591656 9.15138967,1.00254762 14.5737934,1.00254762 C24.9020188,1.00254762 28.5168732,4.28732154 28.5168732,11.614881 L28.5168732,31.3235 C28.5168732,31.5761787 28.2587042,32.0815238 27.7422441,32.0815238 L22.5781315,32.5868689 Z M21.8035023,22.479893 L21.8035023,20.2058215 C21.8035023,19.9531429 21.5453333,19.9531429 21.5453333,19.9531429 L15.8647606,19.9531429 C10.7006479,19.9531429 8.63492958,21.2165118 8.63492958,23.9959406 C8.63492958,26.5226785 10.7006479,27.7860596 14.5737934,27.7860596 C18.963277,27.533381 21.8035023,26.0173333 21.8035023,22.479893 Z" id="path-42"></path>
        <path d="M2.27249765,23.7840118 C1.49786854,21.762619 0.981530516,19.4885476 0.981530516,16.2037737 C0.981530516,12.919012 1.23969953,10.6449406 2.27249765,8.62353561 C4.33821596,3.06470249 9.50232864,0.285273702 16.2156995,0.285273702 C21.3798122,0.285273702 25.2529577,2.054 27.8350141,5.08609524 C28.0931831,5.33877392 28.0931831,5.84411905 27.5768451,5.84411905 L23.1873615,9.38155942 C22.9290704,9.6342381 22.4127324,9.6342381 22.1544413,9.12889296 C20.3470141,7.36016667 18.7977559,6.60214286 15.9575305,6.60214286 C12.8590141,6.60214286 10.5351268,7.8655118 9.50232864,10.6449406 C8.72769953,12.1609882 8.72769953,13.9297023 8.72769953,16.2037737 C8.72769953,18.4778451 8.98586854,20.2465714 9.50232864,22.0152977 C10.5351268,24.5420356 12.8590141,26.0580832 15.9575305,26.0580832 C18.7977559,26.0580832 20.6051831,25.047393 22.1544413,23.5313453 C22.4127324,23.2786667 22.9290704,23.2786667 23.1873615,23.2786667 L27.5768451,26.816107 C27.8350141,27.0687857 27.8350141,27.5741308 27.8350141,27.5741308 C25.2529577,30.3535596 21.1216432,32.1222737 16.2156995,32.1222737 C9.50232864,32.3749524 4.33821596,29.3428571 2.27249765,23.7840118 Z" id="path-44"></path>
        <path d="M23.4678685,43.5904404 C22.9514085,43.5904404 22.6932394,43.3377739 22.1767793,42.8324166 L13.6559812,30.1986905 L9.00832864,34.999512 L9.00832864,42.8324166 C9.00832864,43.0850952 8.75003756,43.5904404 8.23369953,43.5904404 L1.77849765,43.5904404 C1.52032864,43.5904404 1.00386854,43.3377739 1.00386854,42.8324166 L1.00386854,1.14110704 C1.00386854,0.888440583 1.26203756,0.383083226 1.77849765,0.383083226 L8.23369953,0.383083226 C8.49186854,0.383083226 9.00832864,0.635761905 9.00832864,1.14110704 L9.00832864,25.9032263 L20.6276432,13.7748453 C20.8858122,13.269488 21.4022723,13.0168215 21.9186103,13.0168215 L29.1484413,13.0168215 C29.4066103,13.0168215 29.9230704,13.269488 29.4066103,13.7748453 L18.5619249,24.8925238 L30.6976995,43.0850952 C30.9558685,43.3377739 30.9558685,43.843119 30.4394085,43.843119 L23.4678685,43.5904404 Z" id="path-46"></path>
    </defs>
    <g id="bs-black-logo-400x100" stroke="none" stroke-width="1" fill="none" fill-rule="evenodd">
        <g id="header-logo@3x" transform="translate(0.000000, 1.000000)">
            <g id="Group-3" transform="translate(0.000000, 0.880952)">
                <mask id="mask-2" fill="white">
                    <use xlink:href="#path-1"></use>
                </mask>
                <g id="Clip-2"></g>
                <polygon id="Fill-1" fill="#F4B960" mask="url(#mask-2)" points="-13.2234742 -13.818727 93.0655399 -13.818727 93.0655399 90.5866667 -13.2234742 90.5866667"></polygon>
            </g>
            <g id="Group-6" transform="translate(0.000000, 0.880952)">
                <mask id="mask-4" fill="white">
                    <use xlink:href="#path-3"></use>
                </mask>
                <g id="Clip-5"></g>
                <polygon id="Fill-4" fill="#E66F32" mask="url(#mask-4)" points="-13.4034742 -13.9942857 85.3255399 -13.9942857 85.3255399 83.0377775 -13.4034742 83.0377775"></polygon>
            </g>
            <g id="Group-9" transform="translate(9.389671, 0.880952)">
                <mask id="mask-6" fill="white">
                    <use xlink:href="#path-5"></use>
                </mask>
                <g id="Clip-8"></g>
                <polygon id="Fill-7" fill="#E43C41" mask="url(#mask-6)" points="-13.2531455 -13.818727 76.1158685 -13.818727 76.1158685 74.0844441 -13.2531455 74.0844441"></polygon>
            </g>
            <g id="Group-12" transform="translate(15.023474, 5.583333)">
                <mask id="mask-8" fill="white">
                    <use xlink:href="#path-7"></use>
                </mask>
                <g id="Clip-11"></g>
                <polygon id="Fill-10" fill="#BDD041" mask="url(#mask-8)" points="-14.0269484 -13.781108 70.3020657 -13.781108 70.3020657 69.2065082 -14.0269484 69.2065082"></polygon>
            </g>
            <g id="Group-15" transform="translate(15.023474, 9.345238)">
                <mask id="mask-10" fill="white">
                    <use xlink:href="#path-9"></use>
                </mask>
                <g id="Clip-14"></g>
                <polygon id="Fill-13" fill="#6DB54C" mask="url(#mask-10)" points="-14.0269484 -13.5052381 66.3420657 -13.5052381 66.3420657 65.6201584 -14.0269484 65.6201584"></polygon>
            </g>
            <g id="Group-18" transform="translate(15.023474, 9.345238)">
                <mask id="mask-12" fill="white">
                    <use xlink:href="#path-11"></use>
                </mask>
                <g id="Clip-17"></g>
                <polygon id="Fill-16" fill="#AEDAE6" mask="url(#mask-12)" points="-13.8469484 -13.5052381 57.8820657 -13.5052381 57.8820657 57.1934889 -13.8469484 57.1934889"></polygon>
            </g>
            <g id="Group-21" transform="translate(21.596244, 9.345238)">
                <mask id="mask-14" fill="white">
                    <use xlink:href="#path-13"></use>
                </mask>
                <g id="Clip-20"></g>
                <polygon id="Fill-19" fill="#56B8DE" mask="url(#mask-14)" points="-13.5797183 -13.6807968 51.3092958 -13.6807968 51.3092958 50.3468223 -13.5797183 50.3468223"></polygon>
            </g>
            <g id="Group-24" transform="translate(26.291080, 14.047619)">
                <mask id="mask-16" fill="white">
                    <use xlink:href="#path-15"></use>
                </mask>
                <g id="Clip-23"></g>
                <polygon id="Fill-22" fill="#00B1D5" mask="url(#mask-16)" points="-13.594554 -13.6431777 46.6144601 -13.6431777 46.6144601 45.82 -13.594554 45.82"></polygon>
            </g>
            <g id="Group-27" transform="translate(26.291080, 18.750000)">
                <mask id="mask-18" fill="white">
                    <use xlink:href="#path-17"></use>
                </mask>
                <g id="Clip-26"></g>
                <polygon id="Fill-25" fill="url(#radialGradient-19)" mask="url(#mask-18)" points="-137.089202 235.119048 519.248826 235.119048 519.248826 -157.059524 -137.089202 -157.059524"></polygon>
            </g>
            <g id="Group-30" transform="translate(26.291080, 18.750000)">
                <mask id="mask-21" fill="white">
                    <use xlink:href="#path-20"></use>
                </mask>
                <g id="Clip-29"></g>
                <polygon id="Fill-28" fill="#221F1F" mask="url(#mask-21)" points="-13.594554 -13.9566667 41.9344601 -13.9566667 41.9344601 40.9420604 -13.594554 40.9420604"></polygon>
            </g>
            <g id="Group-33" transform="translate(42.253521, 22.511905)">
                <mask id="mask-23" fill="white">
                    <use xlink:href="#path-22"></use>
                </mask>
                <g id="Clip-32"></g>
                <polygon id="Fill-31" fill="#FFFFFF" mask="url(#mask-23)" points="-19.0970516 14.8652701 -4.02805634 -18.7718671 26.4696995 -5.06532952 11.4007042 28.5718077"></polygon>
            </g>
            <g id="Group" transform="translate(88.000000, 13.450000)">
                <g id="Group-36" transform="translate(1.086385, 2.120238)">
                    <mask id="mask-25" fill="white">
                        <use xlink:href="#path-24"></use>
                    </mask>
                    <g id="Clip-35"></g>
                    <polygon id="Fill-34" fill="#333333" mask="url(#mask-25)" points="-17.2228883 -17.4508451 53.480169 -17.4508451 53.480169 62.4350834 -17.2228883 62.4350834"></polygon>
                </g>
                <g id="Group-39" transform="translate(40.147418, 13.123810)">
                    <mask id="mask-27" fill="white">
                        <use xlink:href="#path-26"></use>
                    </mask>
                    <g id="Clip-38"></g>
                    <polygon id="Fill-37" fill="#333333" mask="url(#mask-27)" points="-17.2946385 -17.3367381 43.596507 -17.3367381 43.596507 50.9261547 -17.2946385 50.9261547"></polygon>
                </g>
                <g id="Group-42" transform="translate(64.560563, 14.346429)">
                    <mask id="mask-29" fill="white">
                        <use xlink:href="#path-28"></use>
                    </mask>
                    <g id="Clip-41"></g>
                    <polygon id="Fill-40" fill="#333333" mask="url(#mask-29)" points="-17.6945258 -18.054012 49.3935305 -18.054012 49.3935305 50.4615594 -17.6945258 50.4615594"></polygon>
                </g>
                <g id="Group-45" transform="translate(96.297653, 14.346429)">
                    <mask id="mask-31" fill="white">
                        <use xlink:href="#path-30"></use>
                    </mask>
                    <g id="Clip-44"></g>
                    <polygon id="Fill-43" fill="#333333" mask="url(#mask-31)" points="-17.2261596 -18.054012 68.593615 -18.054012 68.593615 49.7035356 -17.2261596 49.7035356"></polygon>
                </g>
                <g id="Group-48" transform="translate(147.565258, 14.346429)">
                    <mask id="mask-33" fill="white">
                        <use xlink:href="#path-32"></use>
                    </mask>
                    <g id="Clip-47"></g>
                    <polygon id="Fill-46" fill="#333333" mask="url(#mask-33)" points="-18.26677 -17.8013333 47.4658685 -17.8013333 47.4658685 50.4790673 -18.26677 50.4790673"></polygon>
                </g>
                <g id="Group-51" transform="translate(180.523005, 14.346429)">
                    <mask id="mask-35" fill="white">
                        <use xlink:href="#path-34"></use>
                    </mask>
                    <g id="Clip-50"></g>
                    <polygon id="Fill-49" fill="#333333" mask="url(#mask-35)" points="-18.2385728 -18.054012 48.8496056 -18.054012 48.8496056 50.4761819 -18.2385728 50.4761819"></polygon>
                </g>
                <g id="Group-54" transform="translate(214.701408, 13.123810)">
                    <mask id="mask-37" fill="white">
                        <use xlink:href="#path-36"></use>
                    </mask>
                    <g id="Clip-53"></g>
                    <polygon id="Fill-52" fill="#333333" mask="url(#mask-37)" points="-17.5590329 -17.3367381 43.3321127 -17.3367381 43.3321127 50.9261547 -17.5590329 50.9261547"></polygon>
                </g>
                <g id="Group-57" transform="translate(240.335211, 0.897619)">
                    <mask id="mask-39" fill="white">
                        <use xlink:href="#path-38"></use>
                    </mask>
                    <g id="Clip-56"></g>
                    <polygon id="Fill-55" fill="#333333" mask="url(#mask-39)" points="-18.1467793 -17.2389286 54.3636808 -17.2389286 54.3636808 63.9278157 -18.1467793 63.9278157"></polygon>
                </g>
                <g id="Group-60" transform="translate(276.954930, 5.788095)">
                    <mask id="mask-41" fill="white">
                        <use xlink:href="#path-40"></use>
                    </mask>
                    <g id="Clip-59"></g>
                    <polygon id="Fill-58" fill="#333333" mask="url(#mask-41)" points="-17.3264977 -18.086607 36.0766479 -18.086607 36.0766479 59.2725714 -17.3264977 59.2725714"></polygon>
                </g>
                <g id="Group-63" transform="translate(297.706103, 13.123810)">
                    <mask id="mask-43" fill="white">
                        <use xlink:href="#path-42"></use>
                    </mask>
                    <g id="Clip-62"></g>
                    <polygon id="Fill-61" fill="#333333" mask="url(#mask-43)" points="-17.4210986 -17.3367381 46.8267324 -17.3367381 46.8267324 51.431512 -17.4210986 51.431512"></polygon>
                </g>
                <g id="Group-66" transform="translate(330.663850, 14.346429)">
                    <mask id="mask-45" fill="white">
                        <use xlink:href="#path-44"></use>
                    </mask>
                    <g id="Clip-65"></g>
                    <polygon id="Fill-64" fill="#333333" mask="url(#mask-45)" points="-17.3283286 -18.054012 46.3145446 -18.054012 46.3145446 50.4761819 -17.3283286 50.4761819"></polygon>
                </g>
                <g id="Group-69" transform="translate(362.400939, 2.120238)">
                    <mask id="mask-47" fill="white">
                        <use xlink:href="#path-46"></use>
                    </mask>
                    <g id="Clip-68"></g>
                    <polygon id="Fill-67" fill="#333333" mask="url(#mask-47)" points="-17.3059906 -17.9562025 49.177108 -17.9562025 49.177108 62.1824048 -17.3059906 62.1824048"></polygon>
                </g>
            </g>
        </g>
    </g>
</svg>