<svg xmlns="http://www.w3.org/2000/svg" viewBox="0 0 755.97 140"><defs><style>.cls-1{fill:#4d4d4f;}.cls-2{fill:#c8dc5e;}.cls-3{fill:#a8bd4b;}</style></defs><g id="Layer_2" data-name="Layer 2"><g id="Layer_1-2" data-name="Layer 1"><path class="cls-1" d="M212.32,81.21q2,20,19.6,20a39.54,39.54,0,0,0,10.74-1.27,42.9,42.9,0,0,0,7.4-2.73l3.86,10.27a41.15,41.15,0,0,1-9.66,3.6,58.09,58.09,0,0,1-14.07,1.47q-15.34,0-24.34-9.61t-9-27.86A52.89,52.89,0,0,1,199,59.41a33.6,33.6,0,0,1,6.14-11.67,26,26,0,0,1,9.67-7.27A31.63,31.63,0,0,1,227.52,38q14.4,0,21.87,9.27t6.93,27.54Zm28.8-12.8q0-10.94-3.67-15.67T227,48a13.56,13.56,0,0,0-11.54,6q-4.33,6-4.06,18.93Z"/><path class="cls-1" d="M307.39,111.21,293.93,85.08h-.27l-13.74,26.13H263.39L285.66,74l-20-34.67h17.06l12.14,23.47h.27l12.66-23.47h15.34l-20.4,33.6,22.53,38.27Z"/><path class="cls-1" d="M393.4,74.41a51.25,51.25,0,0,1-2.27,15.8,33.9,33.9,0,0,1-6.46,11.87,28.63,28.63,0,0,1-10,7.47,31.19,31.19,0,0,1-12.87,2.6,45.35,45.35,0,0,1-6-.4,24.22,24.22,0,0,1-4.8-1v29.2H334.86V43.21a41.49,41.49,0,0,1,10.2-3.74A63.56,63.56,0,0,1,359.8,38a38,38,0,0,1,14.07,2.47A28.66,28.66,0,0,1,384.4,47.6a31.89,31.89,0,0,1,6.67,11.47A47.29,47.29,0,0,1,393.4,74.41Zm-16.13.53q0-13-4-20.17T359.4,47.6a23.71,23.71,0,0,0-4.67.41A22.57,22.57,0,0,0,351,49.08v52.26a18.39,18.39,0,0,0,7.2,1.2q9.6,0,14.33-7.16T377.27,74.94Z"/><path class="cls-1" d="M419.67,81.21q2,20,19.6,20A39.54,39.54,0,0,0,450,99.94a42.58,42.58,0,0,0,7.4-2.73l3.86,10.27a40.81,40.81,0,0,1-9.66,3.6,58.09,58.09,0,0,1-14.07,1.47q-15.35,0-24.34-9.61t-9-27.86a52.55,52.55,0,0,1,2.14-15.67,33.41,33.41,0,0,1,6.13-11.67,26,26,0,0,1,9.67-7.27A31.66,31.66,0,0,1,434.87,38q14.4,0,21.87,9.27t6.94,27.54Zm28.8-12.8q0-10.94-3.66-15.67T434.34,48a13.56,13.56,0,0,0-11.54,6q-4.33,6-4.06,18.93Z"/><path class="cls-1" d="M508.75,50a21.5,21.5,0,0,0-8.27-1.27,15.27,15.27,0,0,0-6.94,1.8v60.67H477.28v-68a55.14,55.14,0,0,1,6-2.4,47.46,47.46,0,0,1,7.33-1.73A80.08,80.08,0,0,1,500,38.2q5.19-.2,12-.06Z"/><path class="cls-1" d="M539,18.93a7.41,7.41,0,0,1-2.54,5.67,9.83,9.83,0,0,1-12.73,0,7.3,7.3,0,0,1-2.6-5.67,7.43,7.43,0,0,1,2.6-5.79,9.83,9.83,0,0,1,12.73,0A7.54,7.54,0,0,1,539,18.93ZM522,111.21V39.34h16.26v71.87Z"/><path class="cls-1" d="M587,110.55a14.79,14.79,0,0,1-3.2,1,23.39,23.39,0,0,1-5.07.47,22.2,22.2,0,0,1-9.07-1.66,18,18,0,0,1-6.13-4.34,16,16,0,0,1-3.47-6.2A25,25,0,0,1,559,92.54V49.74h-8V39.34h8V23.47l16.26-4.54V39.34H587v10.4H575.28v42a11.49,11.49,0,0,0,1.8,6.8c1.21,1.69,3.22,2.54,6.07,2.54a8.9,8.9,0,0,0,1.94-.2l1.93-.47Z"/><path class="cls-1" d="M612.22,81.21q2,20,19.6,20a39.54,39.54,0,0,0,10.74-1.27,42.9,42.9,0,0,0,7.4-2.73l3.87,10.27a41.24,41.24,0,0,1-9.67,3.6,58.09,58.09,0,0,1-14.07,1.47q-15.33,0-24.34-9.61t-9-27.86a52.55,52.55,0,0,1,2.14-15.67A33.41,33.41,0,0,1,605,47.74a26,26,0,0,1,9.67-7.27A31.63,31.63,0,0,1,627.42,38q14.4,0,21.87,9.27t6.94,27.54ZM641,68.41q0-10.94-3.66-15.67T626.89,48a13.56,13.56,0,0,0-11.54,6q-4.33,6-4.06,18.93Z"/><path class="cls-1" d="M710.9,90.54a20.2,20.2,0,0,1-1.8,8.4,20.89,20.89,0,0,1-5.14,7,24.56,24.56,0,0,1-8.06,4.73,30.83,30.83,0,0,1-10.61,1.73A42.28,42.28,0,0,1,673.76,111a27.49,27.49,0,0,1-8.33-3.74l4.26-10.4a19.47,19.47,0,0,0,5.54,2.87,23.48,23.48,0,0,0,7.93,1.26,11.39,11.39,0,0,0,8.16-2.86,9.56,9.56,0,0,0,3-7.27q0-4.66-2.5-7.2t-8.17-4.67a37.3,37.3,0,0,1-8.26-4.33,21.2,21.2,0,0,1-5-4.94A16.1,16.1,0,0,1,668,64.34a23,23,0,0,1-.67-5.53,20.68,20.68,0,0,1,1.6-8.07,19.16,19.16,0,0,1,4.61-6.6,22.55,22.55,0,0,1,7.21-4.47A25.37,25.37,0,0,1,690.13,38a36.66,36.66,0,0,1,10.61,1.4,31.54,31.54,0,0,1,8.07,3.67l-4,9.47a19.74,19.74,0,0,0-4.57-2.67,16.45,16.45,0,0,0-6.81-1.33q-5.14,0-7.77,2.8A9.39,9.39,0,0,0,683,58a8.56,8.56,0,0,0,3,6.93,28.24,28.24,0,0,0,7.77,4.4,43.25,43.25,0,0,1,8.53,4.53,21.33,21.33,0,0,1,5.23,5.07,17.28,17.28,0,0,1,2.58,5.54A24.78,24.78,0,0,1,710.9,90.54Z"/><path class="cls-1" d="M756,110.55a15,15,0,0,1-3.2,1,23.52,23.52,0,0,1-5.07.47,22.2,22.2,0,0,1-9.07-1.66A18,18,0,0,1,732.5,106a16,16,0,0,1-3.47-6.2A25,25,0,0,1,728,92.54V49.74h-8V39.34h8V23.47l16.27-4.54V39.34H756v10.4H744.23v42a11.49,11.49,0,0,0,1.8,6.8q1.8,2.53,6.07,2.54a8.8,8.8,0,0,0,1.93-.2l1.94-.47Z"/><path class="cls-1" d="M98.16,78.06A49.41,49.41,0,0,0,97.94,71c-.26-2.37-.59-4.76-1-7.2q-.56-3.14-1.3-6a36,36,0,0,0-2-5.64q-5.39-13.56-14.1-21.4A42.47,42.47,0,0,0,59.9,20.54a43.54,43.54,0,0,0-15.27-.09A39.34,39.34,0,0,0,33,24.22l-4.55,2.54a31.85,31.85,0,0,0-8.32,6.82,16.25,16.25,0,0,0-3.37,8l-.67,3.35-.19,1.78-.1,3.77a111.57,111.57,0,0,0,.38,11.42c.32,4.28.72,7.78,1.19,10.54a22.52,22.52,0,0,0,.43,2.42l3.05,9q5.85,13.49,12.88,20.12a40.38,40.38,0,0,0,18,9.46,48.31,48.31,0,0,0,20.46,1.2,33.5,33.5,0,0,0,11.07-3.94q6.53-4.12,8.93-7.55t4.34-11a64.86,64.86,0,0,0,1.56-14m15.07-19.89a79.17,79.17,0,0,1,.53,26,51.48,51.48,0,0,1-8.85,21.8,57.46,57.46,0,0,1-16.17,15.7,54.09,54.09,0,0,1-19.67,7.68,52.22,52.22,0,0,1-30-3.65q-14.75-6.3-25.1-20.52T1.26,77.68Q-2.67,55.35,5.61,37.27A52.25,52.25,0,0,1,31.67,10.86a61.83,61.83,0,0,1,15.65-5q23.31-4.06,42.16,10t23.75,42.26"/><path class="cls-2" d="M130.83,107.43a53.18,53.18,0,0,0,4.69-6.45c1.43-2.29,2.79-4.65,4.11-7.11q1.68-3.16,3-6.23a46.55,46.55,0,0,0,2.15-6.39q4.62-15.77,2.28-28.81a48,48,0,0,0-10.42-22.69A49,49,0,0,0,123.15,19.1a45.2,45.2,0,0,0-12.93-4.69l-5.81-.9a37.1,37.1,0,0,0-12.13.3,18.67,18.67,0,0,0-8.5,4.74l-2.92,2.53-1.4,1.46-2.69,3.27c-2.4,2.92-4.92,6.39-7.6,10.41S64.44,43.65,63,46.43a22.65,22.65,0,0,0-1.31,2.44L58.16,59Q54,75,55.67,85.76t9.46,20.91a54.42,54.42,0,0,0,17.39,15.24,37.84,37.84,0,0,0,12.55,4.18c5.79.57,10.19.39,13.19-.51s6.83-3.17,11.48-6.76a73.51,73.51,0,0,0,11.09-11.39M158,100.19a89.43,89.43,0,0,1-17.59,23.54,58.38,58.38,0,0,1-23,13.25,64.77,64.77,0,0,1-25.25,2.74,60.18,60.18,0,0,1-22.83-6.81,58.83,58.83,0,0,1-24.19-24.06Q36.48,93,37.1,73.22t7.81-33.29Q56.94,17.37,76.79,7a58.82,58.82,0,0,1,41.47-5.44A71.07,71.07,0,0,1,135.63,8q23.53,12.56,30.54,38.17t-8.16,54"/><path class="cls-3" d="M58.93,20.39l1,.15a41.77,41.77,0,0,1,15.55,6.92c.45-.56.89-1.13,1.32-1.65l2.69-3.27,1.4-1.46,2.92-2.53a19.64,19.64,0,0,1,4.72-3.34A55.39,55.39,0,0,0,75,8,69.78,69.78,0,0,0,58.93,20.39Z"/><path class="cls-3" d="M82.52,121.91a48.8,48.8,0,0,1-10.24-7.38h0a48.31,48.31,0,0,1-20.46-1.2A49.09,49.09,0,0,1,47,111.83,58.49,58.49,0,0,0,64.46,130c1.53-.13,3.07-.32,4.61-.58a53.49,53.49,0,0,0,16.69-5.93C84.67,123,83.59,122.48,82.52,121.91Z"/></g></g></svg>