<svg id="Layer_1" data-name="Layer 1" xmlns="http://www.w3.org/2000/svg" viewBox="0 0 1000 180"><defs><style>.cls-1{fill:#666;}.cls-2{fill:#08c;}</style></defs><title>TestObject Logo color horiz color </title><path class="cls-1" d="M364.44,177.8l21.05-38.4h6l6.26,38.4h-5.39l-1.69-11H376.19l-6,11Zm25.67-15.5-1.9-12.19c-.27-2-.54-5.44-.54-5.44h-.11s-1.47,3.48-2.5,5.44l-6.64,12.19Z"/><path class="cls-1" d="M424.65,139.4h13.17a12.65,12.65,0,0,1,6,1.25,9.21,9.21,0,0,1,4.84,8.54,14.3,14.3,0,0,1-8.38,13.27,14.66,14.66,0,0,1-5.71,1.14h-9.25l-2.77,14.2h-5.39ZM434,158.92a8.85,8.85,0,0,0,9.08-9.35c0-3.48-2.23-5.49-6.2-5.49h-7.78l-2.94,14.85Z"/><path class="cls-1" d="M444.62,177.8l21-38.4h6l6.26,38.4h-5.39l-1.69-11H456.37l-6,11Zm25.67-15.5-1.9-12.19c-.27-2-.54-5.44-.54-5.44h-.11s-1.47,3.48-2.5,5.44L458.6,162.3Z"/><path class="cls-1" d="M490.85,139.4H503.9a13,13,0,0,1,5.44,1,8.46,8.46,0,0,1,4.89,8.05A13,13,0,0,1,505,161.1v.11s.27.55.71,1.74L511,177.8h-5.71L500,162.51h-8.38l-2.94,15.29h-5.39Zm9.3,18.44a8.31,8.31,0,0,0,8.54-8.65c0-3.21-2.12-5.11-5.71-5.11h-7.72l-2.67,13.76Z"/><path class="cls-1" d="M532.62,144.08H519.46l.87-4.68H552l-.87,4.68H538l-6.53,33.72H526Z"/><path class="cls-1" d="M587.78,138.75c10.28,0,17.13,6.8,17.13,16.32,0,12.67-11.37,23.39-23,23.39-10.28,0-17.08-7-17.08-16.76C564.88,149.24,576.08,138.75,587.78,138.75ZM582,173.5c8.59,0,17.35-8.16,17.35-18.17,0-6.85-4.79-11.64-11.64-11.64-8.76,0-17.35,7.94-17.35,17.79C570.37,168.55,575.16,173.5,582,173.5Z"/><path class="cls-1" d="M616.11,139.4h21.11l-.93,4.68H620.52l-2.45,12.62h13.38l-.87,4.68H617.15l-3.21,16.42h-5.33Z"/><path class="cls-1" d="M654.24,166.16a14,14,0,0,0,9.19,3.54c1.85,0,4.68-.82,4.68-3.43,0-4.08-14.52-5.11-14.52-15.88,0-7.67,7.24-12.13,14.47-12.13,9.14,0,13.27,4.51,13.27,4.51l-5.11,7a14.35,14.35,0,0,0-8.32-2.78c-1.9,0-4.79,1-4.79,3.37,0,4.3,14.63,5,14.63,15.88,0,6.69-6.09,12.19-14.47,12.19-10,0-14.69-5.55-14.69-5.55Z"/><path class="cls-1" d="M697.7,138.91h10.93L714,177.8H704.5l-.82-8.16H691.55l-3.92,8.16H677.47ZM702.92,162l-.76-7.56c-.22-2.45-.33-6.69-.33-6.69h-.11s-1.58,4.24-2.77,6.69l-3.7,7.56Z"/><path class="cls-1" d="M720.11,163.22l4.73-24.31h9.52l-4.79,24.59a7.74,7.74,0,0,0-.16,1.52c0,3.1,2.18,4.73,5.71,4.73,4.19,0,7.13-2.17,7.94-6.25l4.79-24.59h9.52l-4.84,24.86c-1.74,8.75-8.38,14.69-17.73,14.69-8.1,0-15-4.19-15-12.08A16,16,0,0,1,720.11,163.22Z"/><path class="cls-1" d="M782.17,138.26c10.39,0,15,5.6,15,5.6l-5.39,6.53a15.48,15.48,0,0,0-9.3-3.43c-8.65,0-13.33,7.45-13.33,13.6,0,5,2.88,9.19,9,9.19,5.87,0,11.37-4.62,11.37-4.62l3.7,7.56a25.42,25.42,0,0,1-15.61,5.77c-11.37,0-18.33-7.13-18.33-17.24A23.08,23.08,0,0,1,782.17,138.26Z"/><path class="cls-1" d="M805.29,138.91H829.6L828,147.07H813.17l-1.36,7.07h11.8L822,162.3h-11.8l-1.41,7.34h15.61l-1.58,8.16H797.67Z"/><path class="cls-1" d="M850,138.91h9.52l-6,30.73h15.88l-1.63,8.16H842.43Z"/><path class="cls-1" d="M890.19,138.91h10.93l5.39,38.89H897l-.82-8.16H884l-3.92,8.16H870ZM895.41,162l-.76-7.56c-.22-2.45-.33-6.69-.33-6.69h-.11s-1.58,4.24-2.77,6.69l-3.7,7.56Z"/><path class="cls-1" d="M918.42,138.91h12.51a21.46,21.46,0,0,1,6.8.87,8.57,8.57,0,0,1,6.15,8.37,10.63,10.63,0,0,1-6,9.19v.11c3.37,1.25,4.68,4.35,4.68,7.45,0,6.2-4.13,10.33-9.52,12a19.74,19.74,0,0,1-6.2.87H910.86Zm9.25,30.73a4.83,4.83,0,0,0,5.06-5c0-1.74-1.09-3-3.43-3h-5.77L922,169.64ZM929.9,154a4.21,4.21,0,0,0,4.19-4.35c0-1.47-.82-2.55-3-2.55h-4.73L925,154Z"/><path class="cls-1" d="M950.89,166.16a14,14,0,0,0,9.19,3.54c1.85,0,4.68-.82,4.68-3.43,0-4.08-14.52-5.11-14.52-15.88,0-7.67,7.24-12.13,14.47-12.13,9.14,0,13.27,4.51,13.27,4.51l-5.11,7a14.35,14.35,0,0,0-8.32-2.78c-1.9,0-4.79,1-4.79,3.37,0,4.3,14.63,5,14.63,15.88,0,6.69-6.09,12.19-14.47,12.19-10,0-14.69-5.55-14.69-5.55Z"/><path id="path121" class="cls-2" d="M336.58,168c0,3.29-.11,6.55-.3,9.78H248.51a37,37,0,0,0,9.42-6.83,37.47,37.47,0,0,0-40.16-61.41,56.19,56.19,0,0,0-110,13.41A30,30,0,0,0,85,177.8H2.81c-.21-3.23-.31-6.49-.31-9.78,0-5.29.26-10.55.76-15.73l37.37-13.84c.73-3.15,1.55-6.27,2.48-9.36L17.66,98.47A168.27,168.27,0,0,1,33.41,71.28L72.7,78c2.19-2.37,4.47-4.64,6.83-6.87L72.78,31.91A167,167,0,0,1,100,16.16l30.64,25.45c3.07-.93,6.19-1.74,9.35-2.48l13.83-37.4C159,1.26,164.23,1,169.54,1s10.55.29,15.72.76l13.84,37.4c3.14.74,6.29,1.55,9.35,2.48l30.63-25.45a165.68,165.68,0,0,1,27.18,15.75l-6.75,39.29q3.55,3.29,6.83,6.84l39.28-6.75a166.28,166.28,0,0,1,15.75,27.19l-25.45,30.62q1.4,4.64,2.47,9.36l37.4,13.84c.47,5.18.75,10.43.75,15.73Z"/><polygon id="polygon125" class="cls-2" points="446.79 32.49 420.28 32.49 406.77 101.85 385.29 101.85 398.8 32.49 372.28 32.49 375.84 14.08 450.35 14.08 446.79 32.49"/><path id="path127" class="cls-2" d="M522.92,56c0-2.33,3.81-3.32,6.88-3.32,9.44,0,14.73,4.55,14.73,4.55l9.08-14.47S545,35.51,529.8,35.51c-13.52,0-26.51,8.23-26.51,20.51,0,18.67,25,19.29,25,24.95,0,2.2-3.55,3.77-6.88,3.77h-57.3c-7.88,0-12.4-2.62-12.4-9.17h39.89s2.32-8,2.32-13.82c0-14.6-9.08-25.52-27-25.52-20.86,0-36.46,16.26-36.46,38.26,0,14.82,10.69,27.3,32.3,27.3h58.66c15.83,0,26.65-8.15,26.65-20.43,0-19-25.17-20.43-25.17-25.34ZM466.59,51.1c4.3,0,6.75,2.78,6.75,6.69,0,.74-.13,2-.13,2H454.54C456.51,55.9,460.45,51.1,466.59,51.1Z"/><path id="path129" class="cls-2" d="M562.94,77.3l4.17-21h-8l3.19-16.57H571l3.56-18.17H595l-3.56,18.17H604.8L601.6,56.31H588.22l-3.44,18a19.77,19.77,0,0,0-.36,3.31c0,5.16,4.66,6.14,9.33,6.14,1.84,0,3.32-.12,3.32-.12l-3.56,18.41s-3.19.37-5.65.37c-13.87,0-25.54-5.65-25.54-20.25a24.16,24.16,0,0,1,.62-4.91Z"/><path id="path131" class="cls-1" d="M610.79,66.79a49.32,49.32,0,0,1,49.67-48.84c22.77,0,37.75,15.8,37.75,36.57a49.32,49.32,0,0,1-49.66,48.84C625.78,103.35,610.79,87.55,610.79,66.79ZM679.33,55.7c0-12.27-7.43-21-21-21-17.34,0-28.66,16.63-28.66,30.9,0,12.27,7.43,21,21,21C668,86.6,679.33,70,679.33,55.7Z"/><path id="path133" class="cls-1" d="M718.62,92.74l-.24.83c-1.3,5-4.48,9.09-9.91,9.09-6,0-9.2-4.37-7.19-11.8L719,24.2c1.53-5.78,5.31-9.08,10-9.08,6,0,9.2,4.36,7.2,11.8l-5,18.64c5.43-5.07,10.74-8,17.81-8,13.81,0,24.3,10,24.3,27.13,0,22.41-17.11,38.46-34.92,38.46-9.91,0-15.69-4.13-19.81-10.39Zm36.21-26.9c0-8.25-5.19-13.21-13.21-13.21-9.91,0-19.11,9.91-19.11,21.94,0,8,5.67,13.45,13.57,13.45C745.75,88,754.83,78.58,754.83,65.84Z"/><path id="path135" class="cls-1" d="M794.59,100.41c-4.25,15.69-13.33,20.76-24.19,20.76-5.78,0-9.43-2.24-9.43-7.2,0-4.12,2.95-7.67,6.84-7.31.59,0,2.12.24,3,.24,3.3,0,4.84-2.48,6.25-7.9l13.92-51.91c1.53-5.78,5.31-9.08,10-9.08,6,0,9.21,4.36,7.2,11.8l-13.57,50.61Zm10-68.06c-5.66,0-9.55-3.54-8.61-8.26l.12-.59c1.06-5.07,5.89-8.26,11.56-8.26s9.56,3.54,8.61,8.26l-.12.59C815.12,29.16,810.28,32.34,804.61,32.34Z"/><path id="path137" class="cls-1" d="M854.87,86.49a12.13,12.13,0,0,1,5.43-1.65A6.6,6.6,0,0,1,867,91.68a7.3,7.3,0,0,1-3.42,6,37.11,37.11,0,0,1-20.53,5.66c-18.16,0-29.25-10.62-29.25-28.07,0-18.29,14.86-37.75,37.51-37.75,16.39,0,25.84,10.61,25.84,24.65a31.34,31.34,0,0,1-.71,6.49c-1.18,5.19-3.9,7.91-8.61,7.91H830.69c.59,7.43,5,12.38,14.39,12.38a21,21,0,0,0,9.8-2.48Zm4.84-21.12a14.44,14.44,0,0,0,.59-4.12c0-5.19-3.07-9.32-10.39-9.32-8.14,0-14.74,5.43-17.69,13.45h27.48Z"/><path id="path139" class="cls-1" d="M915,103.35c-17.23,0-29.49-11.32-29.49-28.55a37.51,37.51,0,0,1,37.28-37.27c11.68,0,17.82,4.48,21.36,7.9a9.38,9.38,0,0,1,3.3,7,8.46,8.46,0,0,1-8.61,8.38,7.15,7.15,0,0,1-5.9-2.59,14.08,14.08,0,0,0-11.56-5.31c-9.44,0-18.17,10.27-18.17,21.94,0,8.14,5.42,13.33,12.38,13.33a18.24,18.24,0,0,0,10.85-3.54,10,10,0,0,1,5.31-2A7.21,7.21,0,0,1,939,90a7.42,7.42,0,0,1-2.71,5.9A31.54,31.54,0,0,1,915,103.35Z"/><path id="path141" class="cls-1" d="M968.24,30.92c1.53-5.78,5.31-9.08,10-9.08,6,0,9.21,4.36,7.2,11.8L984,38.71h6a7.67,7.67,0,0,1,0,15.34H979.92l-7.07,26.54a14,14,0,0,0-.47,2.83c0,2.36,1.53,3.78,4.48,3.78h1.42c3.54,0,6.38,2.24,6.38,6.72a7.33,7.33,0,0,1-4.6,7.31,25.56,25.56,0,0,1-10.5,1.77c-11.09,0-16.4-5.42-16.4-12.38a32.05,32.05,0,0,1,1.18-7.91L962,54a7.62,7.62,0,0,1-6.61-7.67,7.46,7.46,0,0,1,7.43-7.67h3.3l2.13-7.78Z"/></svg>